<<<<<<< HEAD
<mxfile host="65bd71144e" pages="4">
    <diagram id="CvPlZSr4-E2iQnoFlyd8" name="sơ đồ tuần tự">
        <mxGraphModel dx="1289" dy="306" grid="1" gridSize="10" guides="1" tooltips="1" connect="1" arrows="1" fold="1" page="1" pageScale="1" pageWidth="827" pageHeight="1169" math="0" shadow="0">
            <root>
                <mxCell id="0"/>
                <mxCell id="1" parent="0"/>
                <mxCell id="vz_G6OBotihetE9_b4QI-1" value="Người dùng" style="rounded=0;whiteSpace=wrap;html=1;" parent="1" vertex="1">
                    <mxGeometry x="-760" y="140" width="120" height="60" as="geometry"/>
                </mxCell>
                <mxCell id="vz_G6OBotihetE9_b4QI-2" value="Giao diện" style="rounded=0;whiteSpace=wrap;html=1;" parent="1" vertex="1">
                    <mxGeometry x="-480" y="140" width="120" height="60" as="geometry"/>
                </mxCell>
                <mxCell id="vz_G6OBotihetE9_b4QI-3" value="Hệ thống" style="rounded=0;whiteSpace=wrap;html=1;" parent="1" vertex="1">
                    <mxGeometry x="-200" y="140" width="120" height="60" as="geometry"/>
                </mxCell>
                <mxCell id="vz_G6OBotihetE9_b4QI-4" value="" style="endArrow=none;dashed=1;html=1;rounded=0;entryX=0.5;entryY=1;entryDx=0;entryDy=0;" parent="1" source="vz_G6OBotihetE9_b4QI-13" target="vz_G6OBotihetE9_b4QI-1" edge="1">
                    <mxGeometry width="50" height="50" relative="1" as="geometry">
                        <mxPoint x="-700" y="800" as="sourcePoint"/>
                        <mxPoint x="-440" y="290" as="targetPoint"/>
                    </mxGeometry>
                </mxCell>
                <mxCell id="vz_G6OBotihetE9_b4QI-5" value="" style="endArrow=none;dashed=1;html=1;rounded=0;entryX=0.5;entryY=1;entryDx=0;entryDy=0;" parent="1" source="vz_G6OBotihetE9_b4QI-8" edge="1">
                    <mxGeometry width="50" height="50" relative="1" as="geometry">
                        <mxPoint x="-415" y="800" as="sourcePoint"/>
                        <mxPoint x="-415" y="200" as="targetPoint"/>
                    </mxGeometry>
                </mxCell>
                <mxCell id="vz_G6OBotihetE9_b4QI-6" value="" style="endArrow=none;dashed=1;html=1;rounded=0;entryX=0.5;entryY=1;entryDx=0;entryDy=0;" parent="1" source="vz_G6OBotihetE9_b4QI-30" edge="1">
                    <mxGeometry width="50" height="50" relative="1" as="geometry">
                        <mxPoint x="-140.66999999999996" y="800" as="sourcePoint"/>
                        <mxPoint x="-140.66999999999996" y="200" as="targetPoint"/>
                    </mxGeometry>
                </mxCell>
                <mxCell id="vz_G6OBotihetE9_b4QI-10" value="" style="endArrow=none;dashed=1;html=1;rounded=0;entryX=0.5;entryY=1;entryDx=0;entryDy=0;" parent="1" source="vz_G6OBotihetE9_b4QI-23" edge="1">
                    <mxGeometry width="50" height="50" relative="1" as="geometry">
                        <mxPoint x="-412" y="796.25" as="sourcePoint"/>
                        <mxPoint x="-415" y="301.25" as="targetPoint"/>
                    </mxGeometry>
                </mxCell>
                <mxCell id="vz_G6OBotihetE9_b4QI-20" style="rounded=0;orthogonalLoop=1;jettySize=auto;html=1;exitX=1;exitY=1;exitDx=0;exitDy=0;entryX=0;entryY=0.25;entryDx=0;entryDy=0;" parent="1" source="vz_G6OBotihetE9_b4QI-8" target="vz_G6OBotihetE9_b4QI-13" edge="1">
                    <mxGeometry relative="1" as="geometry"/>
                </mxCell>
                <mxCell id="vz_G6OBotihetE9_b4QI-8" value="" style="whiteSpace=wrap;html=1;rotation=90;" parent="1" vertex="1">
                    <mxGeometry x="-439.25" y="301.25" width="50" height="7.5" as="geometry"/>
                </mxCell>
                <mxCell id="vz_G6OBotihetE9_b4QI-11" value="" style="endArrow=classic;html=1;rounded=0;" parent="1" edge="1">
                    <mxGeometry width="50" height="50" relative="1" as="geometry">
                        <mxPoint x="-700" y="280" as="sourcePoint"/>
                        <mxPoint x="-420" y="280" as="targetPoint"/>
                    </mxGeometry>
                </mxCell>
                <mxCell id="vz_G6OBotihetE9_b4QI-12" value="Yêu cầu đăng nhập&amp;nbsp;" style="text;html=1;align=center;verticalAlign=middle;resizable=0;points=[];autosize=1;strokeColor=none;fillColor=none;" parent="1" vertex="1">
                    <mxGeometry x="-640" y="258" width="130" height="30" as="geometry"/>
                </mxCell>
                <mxCell id="vz_G6OBotihetE9_b4QI-18" value="" style="endArrow=none;dashed=1;html=1;rounded=0;entryX=0.5;entryY=1;entryDx=0;entryDy=0;" parent="1" target="vz_G6OBotihetE9_b4QI-13" edge="1">
                    <mxGeometry width="50" height="50" relative="1" as="geometry">
                        <mxPoint x="-700" y="800" as="sourcePoint"/>
                        <mxPoint x="-700" y="200" as="targetPoint"/>
                    </mxGeometry>
                </mxCell>
                <mxCell id="vz_G6OBotihetE9_b4QI-26" style="rounded=0;orthogonalLoop=1;jettySize=auto;html=1;exitX=1;exitY=0;exitDx=0;exitDy=0;entryX=0;entryY=1;entryDx=0;entryDy=0;" parent="1" source="vz_G6OBotihetE9_b4QI-13" target="vz_G6OBotihetE9_b4QI-23" edge="1">
                    <mxGeometry relative="1" as="geometry"/>
                </mxCell>
                <mxCell id="vz_G6OBotihetE9_b4QI-13" value="" style="whiteSpace=wrap;html=1;rotation=90;" parent="1" vertex="1">
                    <mxGeometry x="-725" y="350" width="50" height="7.5" as="geometry"/>
                </mxCell>
                <mxCell id="vz_G6OBotihetE9_b4QI-22" value="yêu cầu nhập tài khoản mật khẩu" style="text;html=1;align=center;verticalAlign=middle;resizable=0;points=[];autosize=1;strokeColor=none;fillColor=none;" parent="1" vertex="1">
                    <mxGeometry x="-670" y="308" width="200" height="30" as="geometry"/>
                </mxCell>
                <mxCell id="vz_G6OBotihetE9_b4QI-24" value="" style="endArrow=none;dashed=1;html=1;rounded=0;entryX=0.5;entryY=1;entryDx=0;entryDy=0;" parent="1" target="vz_G6OBotihetE9_b4QI-23" edge="1">
                    <mxGeometry width="50" height="50" relative="1" as="geometry">
                        <mxPoint x="-412" y="796.25" as="sourcePoint"/>
                        <mxPoint x="-415" y="301.25" as="targetPoint"/>
                    </mxGeometry>
                </mxCell>
                <mxCell id="vz_G6OBotihetE9_b4QI-28" style="rounded=0;orthogonalLoop=1;jettySize=auto;html=1;exitX=1;exitY=0;exitDx=0;exitDy=0;" parent="1" source="vz_G6OBotihetE9_b4QI-23" edge="1">
                    <mxGeometry relative="1" as="geometry">
                        <mxPoint x="-140" y="430" as="targetPoint"/>
                    </mxGeometry>
                </mxCell>
                <mxCell id="vz_G6OBotihetE9_b4QI-23" value="" style="whiteSpace=wrap;html=1;rotation=90;" parent="1" vertex="1">
                    <mxGeometry x="-439.25" y="400" width="50" height="7.5" as="geometry"/>
                </mxCell>
                <mxCell id="vz_G6OBotihetE9_b4QI-27" value="nhập tài khoản mật khẩu" style="text;html=1;align=center;verticalAlign=middle;resizable=0;points=[];autosize=1;strokeColor=none;fillColor=none;" parent="1" vertex="1">
                    <mxGeometry x="-645" y="357.5" width="150" height="30" as="geometry"/>
                </mxCell>
                <mxCell id="vz_G6OBotihetE9_b4QI-29" value="gửi tài khoản mật khẩu" style="text;html=1;align=center;verticalAlign=middle;resizable=0;points=[];autosize=1;strokeColor=none;fillColor=none;" parent="1" vertex="1">
                    <mxGeometry x="-360" y="400" width="150" height="30" as="geometry"/>
                </mxCell>
                <mxCell id="vz_G6OBotihetE9_b4QI-31" value="" style="endArrow=none;dashed=1;html=1;rounded=0;entryX=0.5;entryY=1;entryDx=0;entryDy=0;" parent="1" target="vz_G6OBotihetE9_b4QI-30" edge="1">
                    <mxGeometry width="50" height="50" relative="1" as="geometry">
                        <mxPoint x="-140.66999999999996" y="800" as="sourcePoint"/>
                        <mxPoint x="-140.66999999999996" y="200" as="targetPoint"/>
                    </mxGeometry>
                </mxCell>
                <mxCell id="vz_G6OBotihetE9_b4QI-35" style="rounded=0;orthogonalLoop=1;jettySize=auto;html=1;" parent="1" edge="1">
                    <mxGeometry relative="1" as="geometry">
                        <mxPoint x="-413.25" y="610.63" as="targetPoint"/>
                        <mxPoint x="-150" y="610" as="sourcePoint"/>
                    </mxGeometry>
                </mxCell>
                <mxCell id="vz_G6OBotihetE9_b4QI-30" value="" style="whiteSpace=wrap;html=1;rotation=90;" parent="1" vertex="1">
                    <mxGeometry x="-165" y="585" width="50" height="7.5" as="geometry"/>
                </mxCell>
                <mxCell id="vz_G6OBotihetE9_b4QI-32" value="" style="endArrow=classic;html=1;rounded=0;edgeStyle=orthogonalEdgeStyle;entryX=0.5;entryY=0;entryDx=0;entryDy=0;" parent="1" edge="1">
                    <mxGeometry width="50" height="50" relative="1" as="geometry">
                        <mxPoint x="-140" y="520" as="sourcePoint"/>
                        <mxPoint x="-136.25" y="568.75" as="targetPoint"/>
                        <Array as="points">
                            <mxPoint x="-80" y="520"/>
                            <mxPoint x="-80" y="569"/>
                        </Array>
                    </mxGeometry>
                </mxCell>
                <mxCell id="vz_G6OBotihetE9_b4QI-34" value="kiểm tra thông tin" style="text;html=1;align=center;verticalAlign=middle;resizable=0;points=[];autosize=1;strokeColor=none;fillColor=none;" parent="1" vertex="1">
                    <mxGeometry x="-150" y="490" width="120" height="30" as="geometry"/>
                </mxCell>
                <mxCell id="vz_G6OBotihetE9_b4QI-36" value="trả về kết quả" style="text;html=1;align=center;verticalAlign=middle;resizable=0;points=[];autosize=1;strokeColor=none;fillColor=none;" parent="1" vertex="1">
                    <mxGeometry x="-340" y="585" width="100" height="30" as="geometry"/>
                </mxCell>
                <mxCell id="vz_G6OBotihetE9_b4QI-37" value="" style="endArrow=classic;html=1;rounded=0;" parent="1" edge="1">
                    <mxGeometry width="50" height="50" relative="1" as="geometry">
                        <mxPoint x="-420" y="700" as="sourcePoint"/>
                        <mxPoint x="-700" y="700" as="targetPoint"/>
                    </mxGeometry>
                </mxCell>
                <mxCell id="vz_G6OBotihetE9_b4QI-38" value="hiển thị thông báo" style="text;html=1;align=center;verticalAlign=middle;resizable=0;points=[];autosize=1;strokeColor=none;fillColor=none;" parent="1" vertex="1">
                    <mxGeometry x="-620" y="668" width="120" height="30" as="geometry"/>
                </mxCell>
                <mxCell id="vz_G6OBotihetE9_b4QI-40" value="ĐĂNG NHẬP" style="rounded=0;whiteSpace=wrap;html=1;" parent="1" vertex="1">
                    <mxGeometry x="-760" y="10" width="120" height="60" as="geometry"/>
                </mxCell>
                <mxCell id="vz_G6OBotihetE9_b4QI-41" value="Người dùng" style="rounded=0;whiteSpace=wrap;html=1;" parent="1" vertex="1">
                    <mxGeometry x="170" y="140" width="120" height="60" as="geometry"/>
                </mxCell>
                <mxCell id="vz_G6OBotihetE9_b4QI-42" value="Giao diện" style="rounded=0;whiteSpace=wrap;html=1;" parent="1" vertex="1">
                    <mxGeometry x="450" y="140" width="120" height="60" as="geometry"/>
                </mxCell>
                <mxCell id="vz_G6OBotihetE9_b4QI-43" value="Hệ thống" style="rounded=0;whiteSpace=wrap;html=1;" parent="1" vertex="1">
                    <mxGeometry x="730" y="140" width="120" height="60" as="geometry"/>
                </mxCell>
                <mxCell id="vz_G6OBotihetE9_b4QI-44" value="" style="endArrow=none;dashed=1;html=1;rounded=0;entryX=0.5;entryY=1;entryDx=0;entryDy=0;" parent="1" edge="1">
                    <mxGeometry width="50" height="50" relative="1" as="geometry">
                        <mxPoint x="229.92406417112306" y="408.7500000000002" as="sourcePoint"/>
                        <mxPoint x="229.29000000000002" y="200" as="targetPoint"/>
                    </mxGeometry>
                </mxCell>
                <mxCell id="vz_G6OBotihetE9_b4QI-45" value="" style="endArrow=none;dashed=1;html=1;rounded=0;entryX=0.5;entryY=1;entryDx=0;entryDy=0;" parent="1" source="vz_G6OBotihetE9_b4QI-49" edge="1">
                    <mxGeometry width="50" height="50" relative="1" as="geometry">
                        <mxPoint x="509.96" y="564" as="sourcePoint"/>
                        <mxPoint x="509.29" y="200" as="targetPoint"/>
                    </mxGeometry>
                </mxCell>
                <mxCell id="vz_G6OBotihetE9_b4QI-46" value="" style="endArrow=none;dashed=1;html=1;rounded=0;entryX=0.5;entryY=1;entryDx=0;entryDy=0;" parent="1" source="vz_G6OBotihetE9_b4QI-543" edge="1">
                    <mxGeometry width="50" height="50" relative="1" as="geometry">
                        <mxPoint x="789.976134453781" y="918.75" as="sourcePoint"/>
                        <mxPoint x="789.29" y="200" as="targetPoint"/>
                    </mxGeometry>
                </mxCell>
                <mxCell id="vz_G6OBotihetE9_b4QI-47" value="" style="whiteSpace=wrap;html=1;rotation=90;" parent="1" vertex="1">
                    <mxGeometry x="-155" y="595" width="50" height="7.5" as="geometry"/>
                </mxCell>
                <mxCell id="vz_G6OBotihetE9_b4QI-56" value="" style="endArrow=none;dashed=1;html=1;rounded=0;entryX=1;entryY=0.5;entryDx=0;entryDy=0;" parent="1" source="vz_G6OBotihetE9_b4QI-61" target="vz_G6OBotihetE9_b4QI-49" edge="1">
                    <mxGeometry width="50" height="50" relative="1" as="geometry">
                        <mxPoint x="509.96" y="564" as="sourcePoint"/>
                        <mxPoint x="509.29" y="200" as="targetPoint"/>
                    </mxGeometry>
                </mxCell>
                <mxCell id="vz_G6OBotihetE9_b4QI-59" style="rounded=0;orthogonalLoop=1;jettySize=auto;html=1;exitX=1;exitY=1;exitDx=0;exitDy=0;" parent="1" source="vz_G6OBotihetE9_b4QI-49" edge="1">
                    <mxGeometry relative="1" as="geometry">
                        <mxPoint x="230" y="290" as="targetPoint"/>
                    </mxGeometry>
                </mxCell>
                <mxCell id="vz_G6OBotihetE9_b4QI-49" value="" style="whiteSpace=wrap;html=1;rotation=90;" parent="1" vertex="1">
                    <mxGeometry x="485" y="258" width="50" height="7.5" as="geometry"/>
                </mxCell>
                <mxCell id="vz_G6OBotihetE9_b4QI-57" value="" style="endArrow=classic;html=1;rounded=0;entryX=0;entryY=1;entryDx=0;entryDy=0;" parent="1" edge="1">
                    <mxGeometry width="50" height="50" relative="1" as="geometry">
                        <mxPoint x="230" y="240" as="sourcePoint"/>
                        <mxPoint x="506.25" y="240" as="targetPoint"/>
                    </mxGeometry>
                </mxCell>
                <mxCell id="vz_G6OBotihetE9_b4QI-58" value="Chọn giao diện chính" style="text;html=1;align=center;verticalAlign=middle;resizable=0;points=[];autosize=1;strokeColor=none;fillColor=none;" parent="1" vertex="1">
                    <mxGeometry x="290" y="210" width="140" height="30" as="geometry"/>
                </mxCell>
                <mxCell id="vz_G6OBotihetE9_b4QI-60" value="Hiển thị form nhập hóa đơn" style="text;html=1;align=center;verticalAlign=middle;resizable=0;points=[];autosize=1;strokeColor=none;fillColor=none;" parent="1" vertex="1">
                    <mxGeometry x="275" y="258" width="170" height="30" as="geometry"/>
                </mxCell>
                <mxCell id="vz_G6OBotihetE9_b4QI-63" value="" style="endArrow=classic;html=1;rounded=0;entryX=0;entryY=1;entryDx=0;entryDy=0;" parent="1" edge="1">
                    <mxGeometry width="50" height="50" relative="1" as="geometry">
                        <mxPoint x="230" y="350" as="sourcePoint"/>
                        <mxPoint x="506.25" y="350" as="targetPoint"/>
                    </mxGeometry>
                </mxCell>
                <mxCell id="vz_G6OBotihetE9_b4QI-64" value="Nhập thông tin hóa đơn" style="text;html=1;align=center;verticalAlign=middle;resizable=0;points=[];autosize=1;strokeColor=none;fillColor=none;" parent="1" vertex="1">
                    <mxGeometry x="295" y="328" width="150" height="30" as="geometry"/>
                </mxCell>
                <mxCell id="vz_G6OBotihetE9_b4QI-61" value="" style="whiteSpace=wrap;html=1;rotation=90;" parent="1" vertex="1">
                    <mxGeometry x="485" y="370" width="50" height="7.5" as="geometry"/>
                </mxCell>
                <mxCell id="vz_G6OBotihetE9_b4QI-104" value="TẠO HÓA ĐƠN" style="rounded=0;whiteSpace=wrap;html=1;" parent="1" vertex="1">
                    <mxGeometry x="160" y="10" width="120" height="60" as="geometry"/>
                </mxCell>
                <mxCell id="vz_G6OBotihetE9_b4QI-105" value="Người dùng" style="rounded=0;whiteSpace=wrap;html=1;" parent="1" vertex="1">
                    <mxGeometry x="1200" y="140" width="120" height="60" as="geometry"/>
                </mxCell>
                <mxCell id="vz_G6OBotihetE9_b4QI-106" value="Giao diện" style="rounded=0;whiteSpace=wrap;html=1;" parent="1" vertex="1">
                    <mxGeometry x="1480" y="140" width="120" height="60" as="geometry"/>
                </mxCell>
                <mxCell id="vz_G6OBotihetE9_b4QI-107" value="Hệ thống" style="rounded=0;whiteSpace=wrap;html=1;" parent="1" vertex="1">
                    <mxGeometry x="1760" y="140" width="120" height="60" as="geometry"/>
                </mxCell>
                <mxCell id="vz_G6OBotihetE9_b4QI-109" style="edgeStyle=orthogonalEdgeStyle;rounded=0;orthogonalLoop=1;jettySize=auto;html=1;exitX=1;exitY=0.5;exitDx=0;exitDy=0;dashed=1;dashPattern=8 8;endArrow=none;endFill=0;" parent="1" edge="1">
                    <mxGeometry relative="1" as="geometry">
                        <mxPoint x="1259.0881818181815" y="1031.4545232599432" as="targetPoint"/>
                        <mxPoint x="1260" y="627.75" as="sourcePoint"/>
                    </mxGeometry>
                </mxCell>
                <mxCell id="vz_G6OBotihetE9_b4QI-110" style="edgeStyle=orthogonalEdgeStyle;rounded=0;orthogonalLoop=1;jettySize=auto;html=1;exitX=1;exitY=0.75;exitDx=0;exitDy=0;dashed=1;dashPattern=8 8;endArrow=none;endFill=0;" parent="1" source="vz_G6OBotihetE9_b4QI-317" edge="1">
                    <mxGeometry relative="1" as="geometry">
                        <mxPoint x="1539.0881818181815" y="1031.4545232599432" as="targetPoint"/>
                        <mxPoint x="1540" y="918.75" as="sourcePoint"/>
                    </mxGeometry>
                </mxCell>
                <mxCell id="vz_G6OBotihetE9_b4QI-111" style="edgeStyle=orthogonalEdgeStyle;rounded=0;orthogonalLoop=1;jettySize=auto;html=1;exitX=1;exitY=0.5;exitDx=0;exitDy=0;dashed=1;dashPattern=8 8;endArrow=none;endFill=0;" parent="1" edge="1">
                    <mxGeometry relative="1" as="geometry">
                        <mxPoint x="1819.0881818181815" y="1031.4545232599432" as="targetPoint"/>
                        <mxPoint x="1820" y="868.75" as="sourcePoint"/>
                    </mxGeometry>
                </mxCell>
                <mxCell id="vz_G6OBotihetE9_b4QI-117" value="" style="edgeStyle=orthogonalEdgeStyle;rounded=0;orthogonalLoop=1;jettySize=auto;html=1;exitX=0.5;exitY=1;exitDx=0;exitDy=0;dashed=1;dashPattern=8 8;endArrow=none;endFill=0;" parent="1" target="vz_G6OBotihetE9_b4QI-114" edge="1">
                    <mxGeometry relative="1" as="geometry">
                        <mxPoint x="1539.0881818181815" y="1031.4545232599432" as="targetPoint"/>
                        <mxPoint x="1539.27" y="200" as="sourcePoint"/>
                    </mxGeometry>
                </mxCell>
                <mxCell id="vz_G6OBotihetE9_b4QI-114" value="" style="whiteSpace=wrap;html=1;rotation=90;" parent="1" vertex="1">
                    <mxGeometry x="1515" y="293.75" width="50" height="7.5" as="geometry"/>
                </mxCell>
                <mxCell id="vz_G6OBotihetE9_b4QI-118" value="" style="endArrow=classic;html=1;rounded=0;entryX=0;entryY=1;entryDx=0;entryDy=0;" parent="1" edge="1">
                    <mxGeometry width="50" height="50" relative="1" as="geometry">
                        <mxPoint x="1260" y="272.6" as="sourcePoint"/>
                        <mxPoint x="1536.25" y="272.6" as="targetPoint"/>
                    </mxGeometry>
                </mxCell>
                <mxCell id="vz_G6OBotihetE9_b4QI-119" value="Nhập mã tên khách hàng" style="text;html=1;align=center;verticalAlign=middle;resizable=0;points=[];autosize=1;strokeColor=none;fillColor=none;" parent="1" vertex="1">
                    <mxGeometry x="1310" y="248" width="160" height="30" as="geometry"/>
                </mxCell>
                <mxCell id="vz_G6OBotihetE9_b4QI-120" style="rounded=0;orthogonalLoop=1;jettySize=auto;html=1;exitX=1;exitY=1;exitDx=0;exitDy=0;" parent="1" edge="1">
                    <mxGeometry relative="1" as="geometry">
                        <mxPoint x="1260" y="322.6" as="targetPoint"/>
                        <mxPoint x="1536" y="322.6" as="sourcePoint"/>
                    </mxGeometry>
                </mxCell>
                <mxCell id="vz_G6OBotihetE9_b4QI-121" value="Hiển thị ra danh sách có chứa hóa đơn" style="text;html=1;align=center;verticalAlign=middle;resizable=0;points=[];autosize=1;strokeColor=none;fillColor=none;" parent="1" vertex="1">
                    <mxGeometry x="1285" y="298" width="230" height="30" as="geometry"/>
                </mxCell>
                <mxCell id="vz_G6OBotihetE9_b4QI-124" value="" style="edgeStyle=orthogonalEdgeStyle;rounded=0;orthogonalLoop=1;jettySize=auto;html=1;exitX=1;exitY=0.5;exitDx=0;exitDy=0;dashed=1;dashPattern=8 8;endArrow=none;endFill=0;" parent="1" source="vz_G6OBotihetE9_b4QI-114" target="vz_G6OBotihetE9_b4QI-123" edge="1">
                    <mxGeometry relative="1" as="geometry">
                        <mxPoint x="1539.0881818181815" y="1031.4545232599432" as="targetPoint"/>
                        <mxPoint x="1540" y="323" as="sourcePoint"/>
                    </mxGeometry>
                </mxCell>
                <mxCell id="vz_G6OBotihetE9_b4QI-123" value="" style="whiteSpace=wrap;html=1;rotation=90;" parent="1" vertex="1">
                    <mxGeometry x="1515" y="422.5" width="50" height="7.5" as="geometry"/>
                </mxCell>
                <mxCell id="vz_G6OBotihetE9_b4QI-125" value="" style="endArrow=classic;html=1;rounded=0;entryX=0;entryY=1;entryDx=0;entryDy=0;" parent="1" edge="1">
                    <mxGeometry width="50" height="50" relative="1" as="geometry">
                        <mxPoint x="1261.88" y="403.32000000000005" as="sourcePoint"/>
                        <mxPoint x="1538.13" y="403.32000000000005" as="targetPoint"/>
                    </mxGeometry>
                </mxCell>
                <mxCell id="vz_G6OBotihetE9_b4QI-126" value="Chọn hóa đơn cần xóa" style="text;html=1;align=center;verticalAlign=middle;resizable=0;points=[];autosize=1;strokeColor=none;fillColor=none;" parent="1" vertex="1">
                    <mxGeometry x="1315" y="377.5" width="150" height="30" as="geometry"/>
                </mxCell>
                <mxCell id="vz_G6OBotihetE9_b4QI-135" value="" style="whiteSpace=wrap;html=1;rotation=90;" parent="1" vertex="1">
                    <mxGeometry x="205" y="319.25" width="50" height="7.5" as="geometry"/>
                </mxCell>
                <mxCell id="vz_G6OBotihetE9_b4QI-145" value="" style="edgeStyle=orthogonalEdgeStyle;rounded=0;orthogonalLoop=1;jettySize=auto;html=1;exitX=1;exitY=0.5;exitDx=0;exitDy=0;dashed=1;dashPattern=8 8;endArrow=none;endFill=0;" parent="1" source="vz_G6OBotihetE9_b4QI-172" edge="1">
                    <mxGeometry relative="1" as="geometry">
                        <mxPoint x="1260" y="650" as="targetPoint"/>
                        <mxPoint x="1259.27" y="200" as="sourcePoint"/>
                    </mxGeometry>
                </mxCell>
                <mxCell id="vz_G6OBotihetE9_b4QI-162" value="" style="edgeStyle=orthogonalEdgeStyle;rounded=0;orthogonalLoop=1;jettySize=auto;html=1;exitX=1;exitY=0.5;exitDx=0;exitDy=0;dashed=1;dashPattern=8 8;endArrow=none;endFill=0;" parent="1" source="vz_G6OBotihetE9_b4QI-313" edge="1">
                    <mxGeometry relative="1" as="geometry">
                        <mxPoint x="1820" y="870" as="targetPoint"/>
                        <mxPoint x="1820" y="507.5" as="sourcePoint"/>
                    </mxGeometry>
                </mxCell>
                <mxCell id="vz_G6OBotihetE9_b4QI-173" value="" style="edgeStyle=orthogonalEdgeStyle;rounded=0;orthogonalLoop=1;jettySize=auto;html=1;exitX=0.5;exitY=1;exitDx=0;exitDy=0;dashed=1;dashPattern=8 8;endArrow=none;endFill=0;" parent="1" target="vz_G6OBotihetE9_b4QI-172" edge="1">
                    <mxGeometry relative="1" as="geometry">
                        <mxPoint x="1260" y="461" as="targetPoint"/>
                        <mxPoint x="1259.27" y="200" as="sourcePoint"/>
                    </mxGeometry>
                </mxCell>
                <mxCell id="vz_G6OBotihetE9_b4QI-172" value="" style="whiteSpace=wrap;html=1;rotation=90;" parent="1" vertex="1">
                    <mxGeometry x="1235" y="362.5" width="50" height="7.5" as="geometry"/>
                </mxCell>
                <mxCell id="vz_G6OBotihetE9_b4QI-174" value="XÓA HÓA ĐƠN" style="rounded=0;whiteSpace=wrap;html=1;" parent="1" vertex="1">
                    <mxGeometry x="1200" y="20" width="120" height="60" as="geometry"/>
                </mxCell>
                <mxCell id="vz_G6OBotihetE9_b4QI-177" value="Người dùng" style="rounded=0;whiteSpace=wrap;html=1;" parent="1" vertex="1">
                    <mxGeometry x="2340" y="130" width="120" height="60" as="geometry"/>
                </mxCell>
                <mxCell id="vz_G6OBotihetE9_b4QI-178" value="Giao diện" style="rounded=0;whiteSpace=wrap;html=1;" parent="1" vertex="1">
                    <mxGeometry x="2620" y="130" width="120" height="60" as="geometry"/>
                </mxCell>
                <mxCell id="vz_G6OBotihetE9_b4QI-179" value="Hệ thống" style="rounded=0;whiteSpace=wrap;html=1;" parent="1" vertex="1">
                    <mxGeometry x="2900" y="130" width="120" height="60" as="geometry"/>
                </mxCell>
                <mxCell id="vz_G6OBotihetE9_b4QI-195" value="" style="endArrow=classic;html=1;rounded=0;entryX=0;entryY=1;entryDx=0;entryDy=0;" parent="1" edge="1">
                    <mxGeometry width="50" height="50" relative="1" as="geometry">
                        <mxPoint x="2400" y="258" as="sourcePoint"/>
                        <mxPoint x="2671.25" y="257.6" as="targetPoint"/>
                    </mxGeometry>
                </mxCell>
                <mxCell id="vz_G6OBotihetE9_b4QI-196" value="Nhập mã hóa đơn" style="text;html=1;align=center;verticalAlign=middle;resizable=0;points=[];autosize=1;strokeColor=none;fillColor=none;" parent="1" vertex="1">
                    <mxGeometry x="2475" y="236.5" width="120" height="30" as="geometry"/>
                </mxCell>
                <mxCell id="vz_G6OBotihetE9_b4QI-197" style="rounded=0;orthogonalLoop=1;jettySize=auto;html=1;exitX=1;exitY=1;exitDx=0;exitDy=0;" parent="1" edge="1">
                    <mxGeometry relative="1" as="geometry">
                        <mxPoint x="2400" y="308" as="targetPoint"/>
                        <mxPoint x="2671" y="307.6" as="sourcePoint"/>
                    </mxGeometry>
                </mxCell>
                <mxCell id="vz_G6OBotihetE9_b4QI-198" value="Hiển thị ra danh sách có chứa hóa đơn" style="text;html=1;align=center;verticalAlign=middle;resizable=0;points=[];autosize=1;strokeColor=none;fillColor=none;" parent="1" vertex="1">
                    <mxGeometry x="2420" y="283" width="230" height="30" as="geometry"/>
                </mxCell>
                <mxCell id="vz_G6OBotihetE9_b4QI-201" value="" style="endArrow=classic;html=1;rounded=0;entryX=0;entryY=1;entryDx=0;entryDy=0;" parent="1" edge="1">
                    <mxGeometry width="50" height="50" relative="1" as="geometry">
                        <mxPoint x="2400" y="377.50000000000006" as="sourcePoint"/>
                        <mxPoint x="2676.25" y="377.50000000000006" as="targetPoint"/>
                    </mxGeometry>
                </mxCell>
                <mxCell id="vz_G6OBotihetE9_b4QI-202" value="Chọn hóa đơn cần sửa" style="text;html=1;align=center;verticalAlign=middle;resizable=0;points=[];autosize=1;strokeColor=none;fillColor=none;" parent="1" vertex="1">
                    <mxGeometry x="2456" y="351.25" width="150" height="30" as="geometry"/>
                </mxCell>
                <mxCell id="vz_G6OBotihetE9_b4QI-207" value="" style="rounded=0;orthogonalLoop=1;jettySize=auto;html=1;exitX=0.5;exitY=1;exitDx=0;exitDy=0;endArrow=none;endFill=0;dashed=1;dashPattern=12 12;" parent="1" source="vz_G6OBotihetE9_b4QI-177" target="vz_G6OBotihetE9_b4QI-206" edge="1">
                    <mxGeometry relative="1" as="geometry">
                        <mxPoint x="2400" y="1040" as="targetPoint"/>
                        <mxPoint x="2400" y="190" as="sourcePoint"/>
                    </mxGeometry>
                </mxCell>
                <mxCell id="vz_G6OBotihetE9_b4QI-206" value="" style="whiteSpace=wrap;html=1;rotation=90;" parent="1" vertex="1">
                    <mxGeometry x="2375" y="350" width="50" height="7.5" as="geometry"/>
                </mxCell>
                <mxCell id="vz_G6OBotihetE9_b4QI-208" value="" style="rounded=0;orthogonalLoop=1;jettySize=auto;html=1;exitX=0.5;exitY=1;exitDx=0;exitDy=0;endArrow=none;endFill=0;dashed=1;dashPattern=12 12;" parent="1" source="vz_G6OBotihetE9_b4QI-209" target="vz_G6OBotihetE9_b4QI-200" edge="1">
                    <mxGeometry relative="1" as="geometry">
                        <mxPoint x="2679.09" y="1040" as="targetPoint"/>
                        <mxPoint x="2679.09" y="190" as="sourcePoint"/>
                    </mxGeometry>
                </mxCell>
                <mxCell id="vz_G6OBotihetE9_b4QI-200" value="" style="whiteSpace=wrap;html=1;rotation=90;" parent="1" vertex="1">
                    <mxGeometry x="2655" y="400" width="50" height="7.5" as="geometry"/>
                </mxCell>
                <mxCell id="vz_G6OBotihetE9_b4QI-212" value="" style="rounded=0;orthogonalLoop=1;jettySize=auto;html=1;exitX=0.5;exitY=1;exitDx=0;exitDy=0;endArrow=none;endFill=0;dashed=1;dashPattern=12 12;" parent="1" target="vz_G6OBotihetE9_b4QI-209" edge="1">
                    <mxGeometry relative="1" as="geometry">
                        <mxPoint x="2680" y="379" as="targetPoint"/>
                        <mxPoint x="2679.09" y="190" as="sourcePoint"/>
                    </mxGeometry>
                </mxCell>
                <mxCell id="vz_G6OBotihetE9_b4QI-209" value="" style="whiteSpace=wrap;html=1;rotation=90;" parent="1" vertex="1">
                    <mxGeometry x="2655" y="283" width="50" height="7.5" as="geometry"/>
                </mxCell>
                <mxCell id="vz_G6OBotihetE9_b4QI-218" value="" style="rounded=0;orthogonalLoop=1;jettySize=auto;html=1;exitX=0.5;exitY=1;exitDx=0;exitDy=0;endArrow=none;endFill=0;dashed=1;dashPattern=12 12;" parent="1" edge="1">
                    <mxGeometry relative="1" as="geometry">
                        <mxPoint x="2959.9464705882347" y="592.5" as="targetPoint"/>
                        <mxPoint x="2959.09" y="192.5" as="sourcePoint"/>
                    </mxGeometry>
                </mxCell>
                <mxCell id="vz_G6OBotihetE9_b4QI-222" value="" style="rounded=0;orthogonalLoop=1;jettySize=auto;html=1;endArrow=none;endFill=0;dashed=1;dashPattern=12 12;" parent="1" edge="1">
                    <mxGeometry relative="1" as="geometry">
                        <mxPoint x="2680.12" y="595" as="targetPoint"/>
                        <mxPoint x="2680" y="430" as="sourcePoint"/>
                    </mxGeometry>
                </mxCell>
                <mxCell id="vz_G6OBotihetE9_b4QI-226" value="" style="rounded=0;orthogonalLoop=1;jettySize=auto;html=1;exitX=1;exitY=0.5;exitDx=0;exitDy=0;endArrow=none;endFill=0;dashed=1;dashPattern=12 12;" parent="1" source="vz_G6OBotihetE9_b4QI-206" edge="1">
                    <mxGeometry relative="1" as="geometry">
                        <mxPoint x="2400" y="708.0000000000002" as="targetPoint"/>
                        <mxPoint x="2400" y="379" as="sourcePoint"/>
                    </mxGeometry>
                </mxCell>
                <mxCell id="vz_G6OBotihetE9_b4QI-245" value="" style="endArrow=classic;html=1;rounded=0;entryX=0;entryY=1;entryDx=0;entryDy=0;" parent="1" edge="1">
                    <mxGeometry width="50" height="50" relative="1" as="geometry">
                        <mxPoint x="3450" y="278.00000000000006" as="sourcePoint"/>
                        <mxPoint x="3726.25" y="278.00000000000006" as="targetPoint"/>
                    </mxGeometry>
                </mxCell>
                <mxCell id="vz_G6OBotihetE9_b4QI-246" style="rounded=0;orthogonalLoop=1;jettySize=auto;html=1;exitX=1;exitY=1;exitDx=0;exitDy=0;" parent="1" edge="1">
                    <mxGeometry relative="1" as="geometry">
                        <mxPoint x="3732" y="481.17" as="targetPoint"/>
                        <mxPoint x="4008" y="481.17" as="sourcePoint"/>
                    </mxGeometry>
                </mxCell>
                <mxCell id="vz_G6OBotihetE9_b4QI-247" value="SỬA THÔNG TIN" style="rounded=0;whiteSpace=wrap;html=1;" parent="1" vertex="1">
                    <mxGeometry x="2335" y="10" width="120" height="60" as="geometry"/>
                </mxCell>
                <mxCell id="vz_G6OBotihetE9_b4QI-251" style="rounded=0;orthogonalLoop=1;jettySize=auto;html=1;exitX=0.5;exitY=1;exitDx=0;exitDy=0;endArrow=none;endFill=0;dashed=1;dashPattern=8 8;" parent="1" source="vz_G6OBotihetE9_b4QI-270" edge="1">
                    <mxGeometry relative="1" as="geometry">
                        <mxPoint x="3450" y="1150" as="targetPoint"/>
                    </mxGeometry>
                </mxCell>
                <mxCell id="vz_G6OBotihetE9_b4QI-248" value="Người dùng" style="rounded=0;whiteSpace=wrap;html=1;" parent="1" vertex="1">
                    <mxGeometry x="3390" y="130" width="120" height="60" as="geometry"/>
                </mxCell>
                <mxCell id="vz_G6OBotihetE9_b4QI-249" value="Giao diện" style="rounded=0;whiteSpace=wrap;html=1;" parent="1" vertex="1">
                    <mxGeometry x="3670" y="130" width="120" height="60" as="geometry"/>
                </mxCell>
                <mxCell id="vz_G6OBotihetE9_b4QI-250" value="Hệ thống" style="rounded=0;whiteSpace=wrap;html=1;" parent="1" vertex="1">
                    <mxGeometry x="3950" y="130" width="120" height="60" as="geometry"/>
                </mxCell>
                <mxCell id="vz_G6OBotihetE9_b4QI-252" style="rounded=0;orthogonalLoop=1;jettySize=auto;html=1;exitX=1;exitY=0.5;exitDx=0;exitDy=0;endArrow=none;endFill=0;dashed=1;dashPattern=8 8;" parent="1" source="vz_G6OBotihetE9_b4QI-260" edge="1">
                    <mxGeometry relative="1" as="geometry">
                        <mxPoint x="4008.75" y="1160" as="targetPoint"/>
                        <mxPoint x="4008.75" y="200" as="sourcePoint"/>
                    </mxGeometry>
                </mxCell>
                <mxCell id="vz_G6OBotihetE9_b4QI-253" style="rounded=0;orthogonalLoop=1;jettySize=auto;html=1;exitX=1;exitY=0.5;exitDx=0;exitDy=0;endArrow=none;endFill=0;dashed=1;dashPattern=8 8;" parent="1" source="vz_G6OBotihetE9_b4QI-273" edge="1">
                    <mxGeometry relative="1" as="geometry">
                        <mxPoint x="3728.75" y="1150" as="targetPoint"/>
                        <mxPoint x="3728.75" y="190" as="sourcePoint"/>
                    </mxGeometry>
                </mxCell>
                <mxCell id="vz_G6OBotihetE9_b4QI-256" value="" style="rounded=0;orthogonalLoop=1;jettySize=auto;html=1;exitX=0.5;exitY=1;exitDx=0;exitDy=0;endArrow=none;endFill=0;dashed=1;dashPattern=8 8;" parent="1" target="vz_G6OBotihetE9_b4QI-255" edge="1">
                    <mxGeometry relative="1" as="geometry">
                        <mxPoint x="3728.75" y="1150" as="targetPoint"/>
                        <mxPoint x="3728.75" y="190" as="sourcePoint"/>
                    </mxGeometry>
                </mxCell>
                <mxCell id="vz_G6OBotihetE9_b4QI-255" value="" style="whiteSpace=wrap;html=1;rotation=90;" parent="1" vertex="1">
                    <mxGeometry x="3705" y="300.5" width="50" height="7.5" as="geometry"/>
                </mxCell>
                <mxCell id="vz_G6OBotihetE9_b4QI-257" value="Nhập thông tin cần tìm kiếm" style="text;html=1;align=center;verticalAlign=middle;resizable=0;points=[];autosize=1;strokeColor=none;fillColor=none;" parent="1" vertex="1">
                    <mxGeometry x="3500" y="248" width="170" height="30" as="geometry"/>
                </mxCell>
                <mxCell id="vz_G6OBotihetE9_b4QI-258" value="" style="endArrow=classic;html=1;rounded=0;entryX=0;entryY=1;entryDx=0;entryDy=0;" parent="1" edge="1">
                    <mxGeometry width="50" height="50" relative="1" as="geometry">
                        <mxPoint x="3731.88" y="328.00000000000006" as="sourcePoint"/>
                        <mxPoint x="4008.13" y="328.00000000000006" as="targetPoint"/>
                    </mxGeometry>
                </mxCell>
                <mxCell id="vz_G6OBotihetE9_b4QI-259" value="Gửi từ khóa tìm kiếm" style="text;html=1;align=center;verticalAlign=middle;resizable=0;points=[];autosize=1;strokeColor=none;fillColor=none;" parent="1" vertex="1">
                    <mxGeometry x="3800" y="298" width="140" height="30" as="geometry"/>
                </mxCell>
                <mxCell id="vz_G6OBotihetE9_b4QI-262" value="" style="endArrow=classic;html=1;rounded=0;edgeStyle=orthogonalEdgeStyle;entryX=0.072;entryY=0.076;entryDx=0;entryDy=0;entryPerimeter=0;" parent="1" edge="1">
                    <mxGeometry width="50" height="50" relative="1" as="geometry">
                        <mxPoint x="4010" y="388" as="sourcePoint"/>
                        <mxPoint x="4013" y="430" as="targetPoint"/>
                        <Array as="points">
                            <mxPoint x="4080" y="388"/>
                            <mxPoint x="4080" y="428"/>
                            <mxPoint x="4020" y="428"/>
                            <mxPoint x="4020" y="430"/>
                        </Array>
                    </mxGeometry>
                </mxCell>
                <mxCell id="vz_G6OBotihetE9_b4QI-263" value="Tìm kiếm thông tin dựa trên từ khóa" style="text;html=1;align=center;verticalAlign=middle;resizable=0;points=[];autosize=1;strokeColor=none;fillColor=none;" parent="1" vertex="1">
                    <mxGeometry x="4010" y="357.5" width="210" height="30" as="geometry"/>
                </mxCell>
                <mxCell id="vz_G6OBotihetE9_b4QI-264" value="" style="rounded=0;orthogonalLoop=1;jettySize=auto;html=1;exitX=0.5;exitY=1;exitDx=0;exitDy=0;endArrow=none;endFill=0;dashed=1;dashPattern=8 8;" parent="1" target="vz_G6OBotihetE9_b4QI-260" edge="1">
                    <mxGeometry relative="1" as="geometry">
                        <mxPoint x="4008.75" y="1160" as="targetPoint"/>
                        <mxPoint x="4008.75" y="200" as="sourcePoint"/>
                    </mxGeometry>
                </mxCell>
                <mxCell id="vz_G6OBotihetE9_b4QI-260" value="" style="whiteSpace=wrap;html=1;rotation=90;" parent="1" vertex="1">
                    <mxGeometry x="3985" y="452.5" width="50" height="7.5" as="geometry"/>
                </mxCell>
                <mxCell id="vz_G6OBotihetE9_b4QI-265" value="Trả về kết quả tìm thấy" style="text;html=1;align=center;verticalAlign=middle;resizable=0;points=[];autosize=1;strokeColor=none;fillColor=none;" parent="1" vertex="1">
                    <mxGeometry x="3790" y="452.5" width="150" height="30" as="geometry"/>
                </mxCell>
                <mxCell id="vz_G6OBotihetE9_b4QI-267" value="" style="rounded=0;orthogonalLoop=1;jettySize=auto;html=1;exitX=1;exitY=0.5;exitDx=0;exitDy=0;endArrow=none;endFill=0;dashed=1;dashPattern=8 8;" parent="1" source="vz_G6OBotihetE9_b4QI-255" target="vz_G6OBotihetE9_b4QI-266" edge="1">
                    <mxGeometry relative="1" as="geometry">
                        <mxPoint x="3728.75" y="1150" as="targetPoint"/>
                        <mxPoint x="3730" y="329" as="sourcePoint"/>
                    </mxGeometry>
                </mxCell>
                <mxCell id="vz_G6OBotihetE9_b4QI-266" value="" style="whiteSpace=wrap;html=1;rotation=90;" parent="1" vertex="1">
                    <mxGeometry x="3705" y="508.75" width="50" height="7.5" as="geometry"/>
                </mxCell>
                <mxCell id="vz_G6OBotihetE9_b4QI-268" style="rounded=0;orthogonalLoop=1;jettySize=auto;html=1;exitX=1;exitY=1;exitDx=0;exitDy=0;" parent="1" edge="1">
                    <mxGeometry relative="1" as="geometry">
                        <mxPoint x="3450" y="540" as="targetPoint"/>
                        <mxPoint x="3726" y="540" as="sourcePoint"/>
                    </mxGeometry>
                </mxCell>
                <mxCell id="vz_G6OBotihetE9_b4QI-269" value="Trả về danh sách kết quả tìm thấy" style="text;html=1;align=center;verticalAlign=middle;resizable=0;points=[];autosize=1;strokeColor=none;fillColor=none;" parent="1" vertex="1">
                    <mxGeometry x="3490" y="510" width="200" height="30" as="geometry"/>
                </mxCell>
                <mxCell id="vz_G6OBotihetE9_b4QI-271" value="" style="rounded=0;orthogonalLoop=1;jettySize=auto;html=1;exitX=0.5;exitY=1;exitDx=0;exitDy=0;endArrow=none;endFill=0;dashed=1;dashPattern=8 8;" parent="1" source="vz_G6OBotihetE9_b4QI-248" target="vz_G6OBotihetE9_b4QI-270" edge="1">
                    <mxGeometry relative="1" as="geometry">
                        <mxPoint x="3450" y="1150" as="targetPoint"/>
                        <mxPoint x="3450" y="190" as="sourcePoint"/>
                    </mxGeometry>
                </mxCell>
                <mxCell id="vz_G6OBotihetE9_b4QI-270" value="" style="whiteSpace=wrap;html=1;rotation=90;" parent="1" vertex="1">
                    <mxGeometry x="3425" y="569" width="50" height="7.5" as="geometry"/>
                </mxCell>
                <mxCell id="vz_G6OBotihetE9_b4QI-272" value="" style="endArrow=classic;html=1;rounded=0;entryX=0;entryY=1;entryDx=0;entryDy=0;" parent="1" edge="1">
                    <mxGeometry width="50" height="50" relative="1" as="geometry">
                        <mxPoint x="3446.87" y="595" as="sourcePoint"/>
                        <mxPoint x="3723.12" y="595" as="targetPoint"/>
                    </mxGeometry>
                </mxCell>
                <mxCell id="vz_G6OBotihetE9_b4QI-274" value="" style="rounded=0;orthogonalLoop=1;jettySize=auto;html=1;exitX=1;exitY=0.5;exitDx=0;exitDy=0;endArrow=none;endFill=0;dashed=1;dashPattern=8 8;" parent="1" source="vz_G6OBotihetE9_b4QI-266" target="vz_G6OBotihetE9_b4QI-273" edge="1">
                    <mxGeometry relative="1" as="geometry">
                        <mxPoint x="3728.75" y="1150" as="targetPoint"/>
                        <mxPoint x="3730" y="538" as="sourcePoint"/>
                    </mxGeometry>
                </mxCell>
                <mxCell id="vz_G6OBotihetE9_b4QI-273" value="" style="whiteSpace=wrap;html=1;rotation=90;" parent="1" vertex="1">
                    <mxGeometry x="3705" y="615" width="50" height="7.5" as="geometry"/>
                </mxCell>
                <mxCell id="vz_G6OBotihetE9_b4QI-275" value="Chọn hóa đơn tương ứng" style="text;html=1;align=center;verticalAlign=middle;resizable=0;points=[];autosize=1;strokeColor=none;fillColor=none;" parent="1" vertex="1">
                    <mxGeometry x="3501" y="568" width="160" height="30" as="geometry"/>
                </mxCell>
                <mxCell id="vz_G6OBotihetE9_b4QI-306" value="" style="endArrow=classic;html=1;rounded=0;entryX=0;entryY=1;entryDx=0;entryDy=0;" parent="1" edge="1">
                    <mxGeometry width="50" height="50" relative="1" as="geometry">
                        <mxPoint x="1540" y="455.34000000000003" as="sourcePoint"/>
                        <mxPoint x="1816.25" y="455.34000000000003" as="targetPoint"/>
                    </mxGeometry>
                </mxCell>
                <mxCell id="vz_G6OBotihetE9_b4QI-307" value="Gửi thông tin hóa đơn cần tìm" style="text;html=1;align=center;verticalAlign=middle;resizable=0;points=[];autosize=1;strokeColor=none;fillColor=none;" parent="1" vertex="1">
                    <mxGeometry x="1585" y="430" width="180" height="30" as="geometry"/>
                </mxCell>
                <mxCell id="vz_G6OBotihetE9_b4QI-309" value="" style="edgeStyle=orthogonalEdgeStyle;rounded=0;orthogonalLoop=1;jettySize=auto;html=1;exitX=0.5;exitY=1;exitDx=0;exitDy=0;dashed=1;dashPattern=8 8;endArrow=none;endFill=0;" parent="1" edge="1">
                    <mxGeometry relative="1" as="geometry">
                        <mxPoint x="1820" y="500" as="targetPoint"/>
                        <mxPoint x="1819.27" y="200" as="sourcePoint"/>
                    </mxGeometry>
                </mxCell>
                <mxCell id="vz_G6OBotihetE9_b4QI-311" value="" style="endArrow=classic;html=1;rounded=0;edgeStyle=orthogonalEdgeStyle;entryX=0.072;entryY=0.076;entryDx=0;entryDy=0;entryPerimeter=0;" parent="1" edge="1">
                    <mxGeometry width="50" height="50" relative="1" as="geometry">
                        <mxPoint x="1820" y="516.29" as="sourcePoint"/>
                        <mxPoint x="1823" y="558.29" as="targetPoint"/>
                        <Array as="points">
                            <mxPoint x="1890" y="516.29"/>
                            <mxPoint x="1890" y="556.29"/>
                            <mxPoint x="1830" y="556.29"/>
                            <mxPoint x="1830" y="558.29"/>
                        </Array>
                    </mxGeometry>
                </mxCell>
                <mxCell id="vz_G6OBotihetE9_b4QI-312" value="Tìm kiếm thông tin" style="text;html=1;align=center;verticalAlign=middle;resizable=0;points=[];autosize=1;strokeColor=none;fillColor=none;" parent="1" vertex="1">
                    <mxGeometry x="1890" y="524.29" width="120" height="30" as="geometry"/>
                </mxCell>
                <mxCell id="vz_G6OBotihetE9_b4QI-314" value="" style="edgeStyle=orthogonalEdgeStyle;rounded=0;orthogonalLoop=1;jettySize=auto;html=1;exitX=1;exitY=0.5;exitDx=0;exitDy=0;dashed=1;dashPattern=8 8;endArrow=none;endFill=0;" parent="1" target="vz_G6OBotihetE9_b4QI-313" edge="1">
                    <mxGeometry relative="1" as="geometry">
                        <mxPoint x="1820" y="870" as="targetPoint"/>
                        <mxPoint x="1820" y="507.5" as="sourcePoint"/>
                    </mxGeometry>
                </mxCell>
                <mxCell id="vz_G6OBotihetE9_b4QI-313" value="" style="whiteSpace=wrap;html=1;rotation=90;" parent="1" vertex="1">
                    <mxGeometry x="1795" y="580.25" width="50" height="7.5" as="geometry"/>
                </mxCell>
                <mxCell id="vz_G6OBotihetE9_b4QI-315" style="rounded=0;orthogonalLoop=1;jettySize=auto;html=1;exitX=1;exitY=1;exitDx=0;exitDy=0;" parent="1" edge="1">
                    <mxGeometry relative="1" as="geometry">
                        <mxPoint x="1537" y="610" as="targetPoint"/>
                        <mxPoint x="1813" y="610" as="sourcePoint"/>
                    </mxGeometry>
                </mxCell>
                <mxCell id="vz_G6OBotihetE9_b4QI-316" value="Trả về hóa đơn tương ứng" style="text;html=1;align=center;verticalAlign=middle;resizable=0;points=[];autosize=1;strokeColor=none;fillColor=none;" parent="1" vertex="1">
                    <mxGeometry x="1615" y="578" width="170" height="30" as="geometry"/>
                </mxCell>
                <mxCell id="vz_G6OBotihetE9_b4QI-318" value="" style="edgeStyle=orthogonalEdgeStyle;rounded=0;orthogonalLoop=1;jettySize=auto;html=1;exitX=1;exitY=0.75;exitDx=0;exitDy=0;dashed=1;dashPattern=8 8;endArrow=none;endFill=0;" parent="1" source="vz_G6OBotihetE9_b4QI-123" target="vz_G6OBotihetE9_b4QI-317" edge="1">
                    <mxGeometry relative="1" as="geometry">
                        <mxPoint x="1539.0881818181815" y="1031.4545232599432" as="targetPoint"/>
                        <mxPoint x="1538" y="451" as="sourcePoint"/>
                    </mxGeometry>
                </mxCell>
                <mxCell id="vz_G6OBotihetE9_b4QI-317" value="" style="whiteSpace=wrap;html=1;rotation=90;" parent="1" vertex="1">
                    <mxGeometry x="1515" y="636.25" width="50" height="7.5" as="geometry"/>
                </mxCell>
                <mxCell id="vz_G6OBotihetE9_b4QI-319" style="rounded=0;orthogonalLoop=1;jettySize=auto;html=1;exitX=1;exitY=1;exitDx=0;exitDy=0;" parent="1" edge="1">
                    <mxGeometry relative="1" as="geometry">
                        <mxPoint x="1260" y="662.75" as="targetPoint"/>
                        <mxPoint x="1536" y="662.75" as="sourcePoint"/>
                    </mxGeometry>
                </mxCell>
                <mxCell id="vz_G6OBotihetE9_b4QI-320" value="Hiển thị thông tin hóa đơn" style="text;html=1;align=center;verticalAlign=middle;resizable=0;points=[];autosize=1;strokeColor=none;fillColor=none;" parent="1" vertex="1">
                    <mxGeometry x="1320" y="634.25" width="160" height="30" as="geometry"/>
                </mxCell>
                <mxCell id="vz_G6OBotihetE9_b4QI-321" value="" style="whiteSpace=wrap;html=1;rotation=90;" parent="1" vertex="1">
                    <mxGeometry x="1515" y="751.75" width="50" height="7.5" as="geometry"/>
                </mxCell>
                <mxCell id="vz_G6OBotihetE9_b4QI-322" value="" style="endArrow=classic;html=1;rounded=0;entryX=0;entryY=1;entryDx=0;entryDy=0;" parent="1" edge="1">
                    <mxGeometry width="50" height="50" relative="1" as="geometry">
                        <mxPoint x="1261.88" y="731.75" as="sourcePoint"/>
                        <mxPoint x="1538.13" y="731.75" as="targetPoint"/>
                    </mxGeometry>
                </mxCell>
                <mxCell id="vz_G6OBotihetE9_b4QI-323" style="rounded=0;orthogonalLoop=1;jettySize=auto;html=1;exitX=1;exitY=1;exitDx=0;exitDy=0;" parent="1" edge="1">
                    <mxGeometry relative="1" as="geometry">
                        <mxPoint x="1262" y="780.75" as="targetPoint"/>
                        <mxPoint x="1538" y="780.75" as="sourcePoint"/>
                    </mxGeometry>
                </mxCell>
                <mxCell id="vz_G6OBotihetE9_b4QI-324" value="Chọn xóa hóa đơn" style="text;html=1;align=center;verticalAlign=middle;resizable=0;points=[];autosize=1;strokeColor=none;fillColor=none;" parent="1" vertex="1">
                    <mxGeometry x="1340" y="701.75" width="120" height="30" as="geometry"/>
                </mxCell>
                <mxCell id="vz_G6OBotihetE9_b4QI-325" value="Hiện form xác nhận xóa" style="text;html=1;align=center;verticalAlign=middle;resizable=0;points=[];autosize=1;strokeColor=none;fillColor=none;" parent="1" vertex="1">
                    <mxGeometry x="1325" y="751.75" width="150" height="30" as="geometry"/>
                </mxCell>
                <mxCell id="vz_G6OBotihetE9_b4QI-326" value="" style="whiteSpace=wrap;html=1;rotation=90;" parent="1" vertex="1">
                    <mxGeometry x="1235" y="694.25" width="50" height="7.5" as="geometry"/>
                </mxCell>
                <mxCell id="vz_G6OBotihetE9_b4QI-327" value="" style="whiteSpace=wrap;html=1;rotation=90;" parent="1" vertex="1">
                    <mxGeometry x="1235" y="810.75" width="50" height="7.5" as="geometry"/>
                </mxCell>
                <mxCell id="vz_G6OBotihetE9_b4QI-328" value="" style="endArrow=classic;html=1;rounded=0;entryX=0;entryY=1;entryDx=0;entryDy=0;" parent="1" edge="1">
                    <mxGeometry width="50" height="50" relative="1" as="geometry">
                        <mxPoint x="1261.88" y="841.1300000000001" as="sourcePoint"/>
                        <mxPoint x="1538.13" y="841.1300000000001" as="targetPoint"/>
                    </mxGeometry>
                </mxCell>
                <mxCell id="vz_G6OBotihetE9_b4QI-329" value="Chọn xác nhận&amp;nbsp;" style="text;html=1;align=center;verticalAlign=middle;resizable=0;points=[];autosize=1;strokeColor=none;fillColor=none;" parent="1" vertex="1">
                    <mxGeometry x="1350" y="814.25" width="110" height="30" as="geometry"/>
                </mxCell>
                <mxCell id="vz_G6OBotihetE9_b4QI-330" value="" style="whiteSpace=wrap;html=1;rotation=90;" parent="1" vertex="1">
                    <mxGeometry x="1515" y="861.75" width="50" height="7.5" as="geometry"/>
                </mxCell>
                <mxCell id="vz_G6OBotihetE9_b4QI-331" value="" style="endArrow=classic;html=1;rounded=0;entryX=0;entryY=1;entryDx=0;entryDy=0;" parent="1" edge="1">
                    <mxGeometry width="50" height="50" relative="1" as="geometry">
                        <mxPoint x="1540" y="891" as="sourcePoint"/>
                        <mxPoint x="1816.25" y="891" as="targetPoint"/>
                    </mxGeometry>
                </mxCell>
                <mxCell id="vz_G6OBotihetE9_b4QI-332" value="Gửi yêu cầu xóa hóa đơn" style="text;html=1;align=center;verticalAlign=middle;resizable=0;points=[];autosize=1;strokeColor=none;fillColor=none;" parent="1" vertex="1">
                    <mxGeometry x="1600" y="861.75" width="160" height="30" as="geometry"/>
                </mxCell>
                <mxCell id="vz_G6OBotihetE9_b4QI-333" value="" style="endArrow=classic;html=1;rounded=0;edgeStyle=orthogonalEdgeStyle;entryX=0.072;entryY=0.076;entryDx=0;entryDy=0;entryPerimeter=0;" parent="1" edge="1">
                    <mxGeometry width="50" height="50" relative="1" as="geometry">
                        <mxPoint x="1820" y="921.75" as="sourcePoint"/>
                        <mxPoint x="1823" y="963.75" as="targetPoint"/>
                        <Array as="points">
                            <mxPoint x="1890" y="921.75"/>
                            <mxPoint x="1890" y="961.75"/>
                            <mxPoint x="1830" y="961.75"/>
                            <mxPoint x="1830" y="963.75"/>
                        </Array>
                    </mxGeometry>
                </mxCell>
                <mxCell id="vz_G6OBotihetE9_b4QI-334" value="Kiểm tra thông tin" style="text;html=1;align=center;verticalAlign=middle;resizable=0;points=[];autosize=1;strokeColor=none;fillColor=none;" parent="1" vertex="1">
                    <mxGeometry x="1890" y="929.75" width="120" height="30" as="geometry"/>
                </mxCell>
                <mxCell id="vz_G6OBotihetE9_b4QI-335" value="" style="whiteSpace=wrap;html=1;rotation=90;" parent="1" vertex="1">
                    <mxGeometry x="1795" y="1051.75" width="50" height="7.5" as="geometry"/>
                </mxCell>
                <mxCell id="vz_G6OBotihetE9_b4QI-336" value="" style="endArrow=classic;html=1;rounded=0;edgeStyle=orthogonalEdgeStyle;entryX=0.072;entryY=0.076;entryDx=0;entryDy=0;entryPerimeter=0;" parent="1" edge="1">
                    <mxGeometry width="50" height="50" relative="1" as="geometry">
                        <mxPoint x="1820" y="989.75" as="sourcePoint"/>
                        <mxPoint x="1823" y="1031.75" as="targetPoint"/>
                        <Array as="points">
                            <mxPoint x="1890" y="989.75"/>
                            <mxPoint x="1890" y="1029.75"/>
                            <mxPoint x="1830" y="1029.75"/>
                            <mxPoint x="1830" y="1031.75"/>
                        </Array>
                    </mxGeometry>
                </mxCell>
                <mxCell id="vz_G6OBotihetE9_b4QI-337" value="Thêm trường xóa" style="text;html=1;align=center;verticalAlign=middle;resizable=0;points=[];autosize=1;strokeColor=none;fillColor=none;" parent="1" vertex="1">
                    <mxGeometry x="1880" y="989.25" width="120" height="30" as="geometry"/>
                </mxCell>
                <mxCell id="vz_G6OBotihetE9_b4QI-338" style="rounded=0;orthogonalLoop=1;jettySize=auto;html=1;exitX=1;exitY=1;exitDx=0;exitDy=0;" parent="1" edge="1">
                    <mxGeometry relative="1" as="geometry">
                        <mxPoint x="1542" y="1081.75" as="targetPoint"/>
                        <mxPoint x="1818" y="1081.75" as="sourcePoint"/>
                    </mxGeometry>
                </mxCell>
                <mxCell id="vz_G6OBotihetE9_b4QI-339" value="Gửi kết quả trở về" style="text;html=1;align=center;verticalAlign=middle;resizable=0;points=[];autosize=1;strokeColor=none;fillColor=none;" parent="1" vertex="1">
                    <mxGeometry x="1630" y="1051.75" width="120" height="30" as="geometry"/>
                </mxCell>
                <mxCell id="vz_G6OBotihetE9_b4QI-340" value="" style="whiteSpace=wrap;html=1;rotation=90;" parent="1" vertex="1">
                    <mxGeometry x="1515" y="1101.75" width="50" height="7.5" as="geometry"/>
                </mxCell>
                <mxCell id="vz_G6OBotihetE9_b4QI-341" style="rounded=0;orthogonalLoop=1;jettySize=auto;html=1;exitX=1;exitY=1;exitDx=0;exitDy=0;" parent="1" edge="1">
                    <mxGeometry relative="1" as="geometry">
                        <mxPoint x="1262" y="1129.75" as="targetPoint"/>
                        <mxPoint x="1538" y="1129.75" as="sourcePoint"/>
                    </mxGeometry>
                </mxCell>
                <mxCell id="vz_G6OBotihetE9_b4QI-342" value="Gửi thông báo thành công" style="text;html=1;align=center;verticalAlign=middle;resizable=0;points=[];autosize=1;strokeColor=none;fillColor=none;" parent="1" vertex="1">
                    <mxGeometry x="1310" y="1101.75" width="160" height="30" as="geometry"/>
                </mxCell>
                <mxCell id="vz_G6OBotihetE9_b4QI-408" value="" style="endArrow=classic;html=1;rounded=0;entryX=0;entryY=1;entryDx=0;entryDy=0;" parent="1" edge="1">
                    <mxGeometry width="50" height="50" relative="1" as="geometry">
                        <mxPoint x="2680" y="432.96000000000004" as="sourcePoint"/>
                        <mxPoint x="2956.25" y="432.96000000000004" as="targetPoint"/>
                    </mxGeometry>
                </mxCell>
                <mxCell id="vz_G6OBotihetE9_b4QI-409" value="" style="endArrow=classic;html=1;rounded=0;edgeStyle=orthogonalEdgeStyle;entryX=0.072;entryY=0.076;entryDx=0;entryDy=0;entryPerimeter=0;" parent="1" edge="1">
                    <mxGeometry width="50" height="50" relative="1" as="geometry">
                        <mxPoint x="2960" y="493.90999999999997" as="sourcePoint"/>
                        <mxPoint x="2963" y="535.91" as="targetPoint"/>
                        <Array as="points">
                            <mxPoint x="3030" y="493.90999999999997"/>
                            <mxPoint x="3030" y="533.91"/>
                            <mxPoint x="2970" y="533.91"/>
                            <mxPoint x="2970" y="535.91"/>
                        </Array>
                    </mxGeometry>
                </mxCell>
                <mxCell id="vz_G6OBotihetE9_b4QI-410" value="Tìm kiếm thông tin" style="text;html=1;align=center;verticalAlign=middle;resizable=0;points=[];autosize=1;strokeColor=none;fillColor=none;" parent="1" vertex="1">
                    <mxGeometry x="3030" y="501.90999999999997" width="120" height="30" as="geometry"/>
                </mxCell>
                <mxCell id="vz_G6OBotihetE9_b4QI-411" value="" style="edgeStyle=orthogonalEdgeStyle;rounded=0;orthogonalLoop=1;jettySize=auto;html=1;exitX=1;exitY=0.5;exitDx=0;exitDy=0;dashed=1;dashPattern=8 8;endArrow=none;endFill=0;" parent="1" target="vz_G6OBotihetE9_b4QI-412" edge="1">
                    <mxGeometry relative="1" as="geometry">
                        <mxPoint x="2960" y="847.62" as="targetPoint"/>
                        <mxPoint x="2960" y="485.12" as="sourcePoint"/>
                    </mxGeometry>
                </mxCell>
                <mxCell id="vz_G6OBotihetE9_b4QI-412" value="" style="whiteSpace=wrap;html=1;rotation=90;" parent="1" vertex="1">
                    <mxGeometry x="2935" y="557.87" width="50" height="7.5" as="geometry"/>
                </mxCell>
                <mxCell id="vz_G6OBotihetE9_b4QI-413" style="rounded=0;orthogonalLoop=1;jettySize=auto;html=1;exitX=1;exitY=1;exitDx=0;exitDy=0;" parent="1" edge="1">
                    <mxGeometry relative="1" as="geometry">
                        <mxPoint x="2680" y="590" as="targetPoint"/>
                        <mxPoint x="2953" y="587.62" as="sourcePoint"/>
                    </mxGeometry>
                </mxCell>
                <mxCell id="vz_G6OBotihetE9_b4QI-414" value="Trả về hóa đơn tương ứng" style="text;html=1;align=center;verticalAlign=middle;resizable=0;points=[];autosize=1;strokeColor=none;fillColor=none;" parent="1" vertex="1">
                    <mxGeometry x="2755" y="555.62" width="170" height="30" as="geometry"/>
                </mxCell>
                <mxCell id="vz_G6OBotihetE9_b4QI-416" value="" style="whiteSpace=wrap;html=1;rotation=90;" parent="1" vertex="1">
                    <mxGeometry x="2655" y="613.87" width="50" height="7.5" as="geometry"/>
                </mxCell>
                <mxCell id="vz_G6OBotihetE9_b4QI-419" value="" style="rounded=0;orthogonalLoop=1;jettySize=auto;html=1;endArrow=none;endFill=0;dashed=1;dashPattern=12 12;" parent="1" edge="1">
                    <mxGeometry relative="1" as="geometry">
                        <mxPoint x="2679.56" y="807.5" as="targetPoint"/>
                        <mxPoint x="2679.44" y="642.5" as="sourcePoint"/>
                    </mxGeometry>
                </mxCell>
                <mxCell id="vz_G6OBotihetE9_b4QI-420" value="" style="rounded=0;orthogonalLoop=1;jettySize=auto;html=1;endArrow=none;endFill=0;dashed=1;dashPattern=12 12;" parent="1" edge="1">
                    <mxGeometry relative="1" as="geometry">
                        <mxPoint x="2960" y="1392.0001220703125" as="targetPoint"/>
                        <mxPoint x="2959.44" y="587.75" as="sourcePoint"/>
                    </mxGeometry>
                </mxCell>
                <mxCell id="vz_G6OBotihetE9_b4QI-421" style="rounded=0;orthogonalLoop=1;jettySize=auto;html=1;exitX=1;exitY=0.5;exitDx=0;exitDy=0;endArrow=none;endFill=0;dashed=1;dashPattern=12 12;" parent="1" edge="1">
                    <mxGeometry relative="1" as="geometry">
                        <mxPoint x="2400" y="1400" as="targetPoint"/>
                        <mxPoint x="2400" y="690" as="sourcePoint"/>
                    </mxGeometry>
                </mxCell>
                <mxCell id="vz_G6OBotihetE9_b4QI-422" value="" style="rounded=0;orthogonalLoop=1;jettySize=auto;html=1;exitX=1;exitY=0.5;exitDx=0;exitDy=0;endArrow=none;endFill=0;dashed=1;dashPattern=12 12;" parent="1" edge="1">
                    <mxGeometry relative="1" as="geometry">
                        <mxPoint x="2679" y="1400" as="targetPoint"/>
                        <mxPoint x="2679.33" y="807.5" as="sourcePoint"/>
                    </mxGeometry>
                </mxCell>
                <mxCell id="vz_G6OBotihetE9_b4QI-423" value="Hiển thị thông tin hóa đơn" style="text;html=1;align=center;verticalAlign=middle;resizable=0;points=[];autosize=1;strokeColor=none;fillColor=none;" parent="1" vertex="1">
                    <mxGeometry x="2470" y="608" width="160" height="30" as="geometry"/>
                </mxCell>
                <mxCell id="vz_G6OBotihetE9_b4QI-424" style="rounded=0;orthogonalLoop=1;jettySize=auto;html=1;exitX=1;exitY=1;exitDx=0;exitDy=0;" parent="1" edge="1">
                    <mxGeometry relative="1" as="geometry">
                        <mxPoint x="2400" y="649" as="targetPoint"/>
                        <mxPoint x="2676" y="648" as="sourcePoint"/>
                    </mxGeometry>
                </mxCell>
                <mxCell id="vz_G6OBotihetE9_b4QI-425" value="" style="endArrow=classic;html=1;rounded=0;entryX=0;entryY=1;entryDx=0;entryDy=0;" parent="1" edge="1">
                    <mxGeometry width="50" height="50" relative="1" as="geometry">
                        <mxPoint x="2680" y="716.5" as="sourcePoint"/>
                        <mxPoint x="2956.25" y="716.5" as="targetPoint"/>
                    </mxGeometry>
                </mxCell>
                <mxCell id="vz_G6OBotihetE9_b4QI-426" value="Gửi yêu cầu kiểm tra thời hạn đến hệ thống" style="text;html=1;align=center;verticalAlign=middle;resizable=0;points=[];autosize=1;strokeColor=none;fillColor=none;" parent="1" vertex="1">
                    <mxGeometry x="2680" y="686.5" width="260" height="30" as="geometry"/>
                </mxCell>
                <mxCell id="vz_G6OBotihetE9_b4QI-427" value="" style="endArrow=classic;html=1;rounded=0;edgeStyle=orthogonalEdgeStyle;entryX=0.072;entryY=0.076;entryDx=0;entryDy=0;entryPerimeter=0;" parent="1" edge="1">
                    <mxGeometry width="50" height="50" relative="1" as="geometry">
                        <mxPoint x="2960" y="772" as="sourcePoint"/>
                        <mxPoint x="2963" y="814" as="targetPoint"/>
                        <Array as="points">
                            <mxPoint x="3030" y="772"/>
                            <mxPoint x="3030" y="812"/>
                            <mxPoint x="2970" y="812"/>
                            <mxPoint x="2970" y="814"/>
                        </Array>
                    </mxGeometry>
                </mxCell>
                <mxCell id="vz_G6OBotihetE9_b4QI-428" value="Kiểm tra thời hạn&amp;nbsp;" style="text;html=1;align=center;verticalAlign=middle;resizable=0;points=[];autosize=1;strokeColor=none;fillColor=none;" parent="1" vertex="1">
                    <mxGeometry x="3030" y="780" width="120" height="30" as="geometry"/>
                </mxCell>
                <mxCell id="vz_G6OBotihetE9_b4QI-429" value="" style="whiteSpace=wrap;html=1;rotation=90;" parent="1" vertex="1">
                    <mxGeometry x="2935" y="832.75" width="50" height="7.5" as="geometry"/>
                </mxCell>
                <mxCell id="vz_G6OBotihetE9_b4QI-430" style="rounded=0;orthogonalLoop=1;jettySize=auto;html=1;exitX=1;exitY=1;exitDx=0;exitDy=0;" parent="1" edge="1">
                    <mxGeometry relative="1" as="geometry">
                        <mxPoint x="2680" y="864" as="targetPoint"/>
                        <mxPoint x="2956" y="864" as="sourcePoint"/>
                    </mxGeometry>
                </mxCell>
                <mxCell id="vz_G6OBotihetE9_b4QI-431" value="Trả kết quả" style="text;html=1;align=center;verticalAlign=middle;resizable=0;points=[];autosize=1;strokeColor=none;fillColor=none;" parent="1" vertex="1">
                    <mxGeometry x="2780" y="832.75" width="80" height="30" as="geometry"/>
                </mxCell>
                <mxCell id="vz_G6OBotihetE9_b4QI-432" value="" style="whiteSpace=wrap;html=1;rotation=90;" parent="1" vertex="1">
                    <mxGeometry x="2650" y="887" width="50" height="7.5" as="geometry"/>
                </mxCell>
                <mxCell id="vz_G6OBotihetE9_b4QI-433" style="rounded=0;orthogonalLoop=1;jettySize=auto;html=1;exitX=1;exitY=1;exitDx=0;exitDy=0;" parent="1" edge="1">
                    <mxGeometry relative="1" as="geometry">
                        <mxPoint x="2397" y="917" as="targetPoint"/>
                        <mxPoint x="2673" y="917" as="sourcePoint"/>
                    </mxGeometry>
                </mxCell>
                <mxCell id="vz_G6OBotihetE9_b4QI-434" value="Cho phép chỉnh sửa" style="text;html=1;align=center;verticalAlign=middle;resizable=0;points=[];autosize=1;strokeColor=none;fillColor=none;" parent="1" vertex="1">
                    <mxGeometry x="2465" y="887" width="130" height="30" as="geometry"/>
                </mxCell>
                <mxCell id="vz_G6OBotihetE9_b4QI-435" value="" style="whiteSpace=wrap;html=1;rotation=90;" parent="1" vertex="1">
                    <mxGeometry x="2375" y="948.25" width="50" height="7.5" as="geometry"/>
                </mxCell>
                <mxCell id="vz_G6OBotihetE9_b4QI-436" value="" style="endArrow=classic;html=1;rounded=0;entryX=0;entryY=1;entryDx=0;entryDy=0;" parent="1" edge="1">
                    <mxGeometry width="50" height="50" relative="1" as="geometry">
                        <mxPoint x="2396.88" y="981.47" as="sourcePoint"/>
                        <mxPoint x="2673.13" y="981.47" as="targetPoint"/>
                    </mxGeometry>
                </mxCell>
                <mxCell id="vz_G6OBotihetE9_b4QI-437" value="Nhập thông tin chỉnh sửa và xác nhận" style="text;html=1;align=center;verticalAlign=middle;resizable=0;points=[];autosize=1;strokeColor=none;fillColor=none;" parent="1" vertex="1">
                    <mxGeometry x="2415" y="955.75" width="230" height="30" as="geometry"/>
                </mxCell>
                <mxCell id="vz_G6OBotihetE9_b4QI-438" value="" style="whiteSpace=wrap;html=1;rotation=90;" parent="1" vertex="1">
                    <mxGeometry x="2650" y="997" width="50" height="7.5" as="geometry"/>
                </mxCell>
                <mxCell id="vz_G6OBotihetE9_b4QI-439" value="" style="endArrow=classic;html=1;rounded=0;entryX=0;entryY=1;entryDx=0;entryDy=0;" parent="1" edge="1">
                    <mxGeometry width="50" height="50" relative="1" as="geometry">
                        <mxPoint x="2681.87" y="1026.5" as="sourcePoint"/>
                        <mxPoint x="2958.12" y="1026.5" as="targetPoint"/>
                    </mxGeometry>
                </mxCell>
                <mxCell id="vz_G6OBotihetE9_b4QI-440" value="Gửi thông tin đến hệ thống" style="text;html=1;align=center;verticalAlign=middle;resizable=0;points=[];autosize=1;strokeColor=none;fillColor=none;" parent="1" vertex="1">
                    <mxGeometry x="2720" y="997" width="170" height="30" as="geometry"/>
                </mxCell>
                <mxCell id="vz_G6OBotihetE9_b4QI-441" value="" style="endArrow=classic;html=1;rounded=0;edgeStyle=orthogonalEdgeStyle;entryX=0.072;entryY=0.076;entryDx=0;entryDy=0;entryPerimeter=0;" parent="1" edge="1">
                    <mxGeometry width="50" height="50" relative="1" as="geometry">
                        <mxPoint x="2960" y="1079" as="sourcePoint"/>
                        <mxPoint x="2963" y="1121" as="targetPoint"/>
                        <Array as="points">
                            <mxPoint x="3030" y="1079"/>
                            <mxPoint x="3030" y="1119"/>
                            <mxPoint x="2970" y="1119"/>
                            <mxPoint x="2970" y="1121"/>
                        </Array>
                    </mxGeometry>
                </mxCell>
                <mxCell id="vz_G6OBotihetE9_b4QI-442" value="Kiểm tra thông tin" style="text;html=1;align=center;verticalAlign=middle;resizable=0;points=[];autosize=1;strokeColor=none;fillColor=none;" parent="1" vertex="1">
                    <mxGeometry x="3030" y="1087" width="120" height="30" as="geometry"/>
                </mxCell>
                <mxCell id="vz_G6OBotihetE9_b4QI-443" value="" style="endArrow=classic;html=1;rounded=0;edgeStyle=orthogonalEdgeStyle;entryX=0.072;entryY=0.076;entryDx=0;entryDy=0;entryPerimeter=0;" parent="1" edge="1">
                    <mxGeometry width="50" height="50" relative="1" as="geometry">
                        <mxPoint x="2960" y="1159" as="sourcePoint"/>
                        <mxPoint x="2963" y="1201" as="targetPoint"/>
                        <Array as="points">
                            <mxPoint x="3030" y="1159"/>
                            <mxPoint x="3030" y="1199"/>
                            <mxPoint x="2970" y="1199"/>
                            <mxPoint x="2970" y="1201"/>
                        </Array>
                    </mxGeometry>
                </mxCell>
                <mxCell id="vz_G6OBotihetE9_b4QI-444" value="Lưu thông tin" style="text;html=1;align=center;verticalAlign=middle;resizable=0;points=[];autosize=1;strokeColor=none;fillColor=none;" parent="1" vertex="1">
                    <mxGeometry x="3045" y="1167" width="90" height="30" as="geometry"/>
                </mxCell>
                <mxCell id="vz_G6OBotihetE9_b4QI-445" value="" style="whiteSpace=wrap;html=1;rotation=90;" parent="1" vertex="1">
                    <mxGeometry x="2935" y="1218.25" width="50" height="7.5" as="geometry"/>
                </mxCell>
                <mxCell id="vz_G6OBotihetE9_b4QI-446" style="rounded=0;orthogonalLoop=1;jettySize=auto;html=1;exitX=1;exitY=1;exitDx=0;exitDy=0;" parent="1" edge="1">
                    <mxGeometry relative="1" as="geometry">
                        <mxPoint x="2680" y="1246.5" as="targetPoint"/>
                        <mxPoint x="2956" y="1246.5" as="sourcePoint"/>
                    </mxGeometry>
                </mxCell>
                <mxCell id="vz_G6OBotihetE9_b4QI-447" value="" style="whiteSpace=wrap;html=1;rotation=90;" parent="1" vertex="1">
                    <mxGeometry x="2650" y="1269" width="50" height="7.5" as="geometry"/>
                </mxCell>
                <mxCell id="vz_G6OBotihetE9_b4QI-448" value="Trả về kết quả" style="text;html=1;align=center;verticalAlign=middle;resizable=0;points=[];autosize=1;strokeColor=none;fillColor=none;" parent="1" vertex="1">
                    <mxGeometry x="2760" y="1216.5" width="100" height="30" as="geometry"/>
                </mxCell>
                <mxCell id="vz_G6OBotihetE9_b4QI-449" style="rounded=0;orthogonalLoop=1;jettySize=auto;html=1;exitX=1;exitY=1;exitDx=0;exitDy=0;" parent="1" edge="1">
                    <mxGeometry relative="1" as="geometry">
                        <mxPoint x="2400" y="1299" as="targetPoint"/>
                        <mxPoint x="2668" y="1299" as="sourcePoint"/>
                    </mxGeometry>
                </mxCell>
                <mxCell id="vz_G6OBotihetE9_b4QI-450" value="Thông báo kết quả" style="text;html=1;align=center;verticalAlign=middle;resizable=0;points=[];autosize=1;strokeColor=none;fillColor=none;" parent="1" vertex="1">
                    <mxGeometry x="2470" y="1269" width="120" height="30" as="geometry"/>
                </mxCell>
                <mxCell id="vz_G6OBotihetE9_b4QI-451" value="" style="rounded=0;orthogonalLoop=1;jettySize=auto;html=1;endArrow=none;endFill=0;dashed=1;dashPattern=12 12;" parent="1" edge="1">
                    <mxGeometry relative="1" as="geometry">
                        <mxPoint x="3730.12" y="807.5" as="targetPoint"/>
                        <mxPoint x="3730" y="642.5" as="sourcePoint"/>
                    </mxGeometry>
                </mxCell>
                <mxCell id="vz_G6OBotihetE9_b4QI-452" value="" style="endArrow=classic;html=1;rounded=0;entryX=0;entryY=1;entryDx=0;entryDy=0;" parent="1" edge="1">
                    <mxGeometry width="50" height="50" relative="1" as="geometry">
                        <mxPoint x="3730" y="645.46" as="sourcePoint"/>
                        <mxPoint x="4006.25" y="645.46" as="targetPoint"/>
                    </mxGeometry>
                </mxCell>
                <mxCell id="vz_G6OBotihetE9_b4QI-453" value="" style="endArrow=classic;html=1;rounded=0;edgeStyle=orthogonalEdgeStyle;entryX=0.072;entryY=0.076;entryDx=0;entryDy=0;entryPerimeter=0;" parent="1" edge="1">
                    <mxGeometry width="50" height="50" relative="1" as="geometry">
                        <mxPoint x="4010" y="706.41" as="sourcePoint"/>
                        <mxPoint x="4013" y="748.41" as="targetPoint"/>
                        <Array as="points">
                            <mxPoint x="4080" y="706.41"/>
                            <mxPoint x="4080" y="746.41"/>
                            <mxPoint x="4020" y="746.41"/>
                            <mxPoint x="4020" y="748.41"/>
                        </Array>
                    </mxGeometry>
                </mxCell>
                <mxCell id="vz_G6OBotihetE9_b4QI-454" value="Tìm kiếm thông tin" style="text;html=1;align=center;verticalAlign=middle;resizable=0;points=[];autosize=1;strokeColor=none;fillColor=none;" parent="1" vertex="1">
                    <mxGeometry x="4080" y="714.41" width="120" height="30" as="geometry"/>
                </mxCell>
                <mxCell id="vz_G6OBotihetE9_b4QI-455" value="" style="edgeStyle=orthogonalEdgeStyle;rounded=0;orthogonalLoop=1;jettySize=auto;html=1;exitX=1;exitY=0.5;exitDx=0;exitDy=0;dashed=1;dashPattern=8 8;endArrow=none;endFill=0;" parent="1" target="vz_G6OBotihetE9_b4QI-456" edge="1">
                    <mxGeometry relative="1" as="geometry">
                        <mxPoint x="4010" y="1060.12" as="targetPoint"/>
                        <mxPoint x="4010" y="697.62" as="sourcePoint"/>
                    </mxGeometry>
                </mxCell>
                <mxCell id="vz_G6OBotihetE9_b4QI-456" value="" style="whiteSpace=wrap;html=1;rotation=90;" parent="1" vertex="1">
                    <mxGeometry x="3985" y="770.37" width="50" height="7.5" as="geometry"/>
                </mxCell>
                <mxCell id="vz_G6OBotihetE9_b4QI-457" style="rounded=0;orthogonalLoop=1;jettySize=auto;html=1;exitX=1;exitY=1;exitDx=0;exitDy=0;" parent="1" edge="1">
                    <mxGeometry relative="1" as="geometry">
                        <mxPoint x="3730" y="802.5" as="targetPoint"/>
                        <mxPoint x="4003" y="800.12" as="sourcePoint"/>
                    </mxGeometry>
                </mxCell>
                <mxCell id="vz_G6OBotihetE9_b4QI-458" value="Trả về hóa đơn tương ứng" style="text;html=1;align=center;verticalAlign=middle;resizable=0;points=[];autosize=1;strokeColor=none;fillColor=none;" parent="1" vertex="1">
                    <mxGeometry x="3785" y="770" width="170" height="30" as="geometry"/>
                </mxCell>
                <mxCell id="vz_G6OBotihetE9_b4QI-463" value="" style="whiteSpace=wrap;html=1;rotation=90;" parent="1" vertex="1">
                    <mxGeometry x="3705" y="827.29" width="50" height="7.5" as="geometry"/>
                </mxCell>
                <mxCell id="vz_G6OBotihetE9_b4QI-464" value="Hiển thị thông tin hóa đơn" style="text;html=1;align=center;verticalAlign=middle;resizable=0;points=[];autosize=1;strokeColor=none;fillColor=none;" parent="1" vertex="1">
                    <mxGeometry x="3520" y="821.42" width="160" height="30" as="geometry"/>
                </mxCell>
                <mxCell id="vz_G6OBotihetE9_b4QI-465" style="rounded=0;orthogonalLoop=1;jettySize=auto;html=1;exitX=1;exitY=1;exitDx=0;exitDy=0;" parent="1" edge="1">
                    <mxGeometry relative="1" as="geometry">
                        <mxPoint x="3450" y="862.42" as="targetPoint"/>
                        <mxPoint x="3726" y="861.42" as="sourcePoint"/>
                    </mxGeometry>
                </mxCell>
                <mxCell id="vz_G6OBotihetE9_b4QI-466" value="TÌM KIỀM" style="rounded=0;whiteSpace=wrap;html=1;" parent="1" vertex="1">
                    <mxGeometry x="3380" y="20" width="120" height="60" as="geometry"/>
                </mxCell>
                <mxCell id="vz_G6OBotihetE9_b4QI-467" style="rounded=0;orthogonalLoop=1;jettySize=auto;html=1;" parent="1" edge="1">
                    <mxGeometry relative="1" as="geometry">
                        <mxPoint x="230" y="400" as="targetPoint"/>
                        <mxPoint x="510" y="400" as="sourcePoint"/>
                    </mxGeometry>
                </mxCell>
                <mxCell id="vz_G6OBotihetE9_b4QI-468" value="Yêu cầu xác nhận thông tin" style="text;html=1;align=center;verticalAlign=middle;resizable=0;points=[];autosize=1;strokeColor=none;fillColor=none;" parent="1" vertex="1">
                    <mxGeometry x="285" y="370" width="170" height="30" as="geometry"/>
                </mxCell>
                <mxCell id="vz_G6OBotihetE9_b4QI-470" value="" style="whiteSpace=wrap;html=1;rotation=90;" parent="1" vertex="1">
                    <mxGeometry x="485" y="490" width="50" height="7.5" as="geometry"/>
                </mxCell>
                <mxCell id="vz_G6OBotihetE9_b4QI-471" value="" style="endArrow=classic;html=1;rounded=0;entryX=0;entryY=1;entryDx=0;entryDy=0;" parent="1" edge="1">
                    <mxGeometry width="50" height="50" relative="1" as="geometry">
                        <mxPoint x="230" y="470" as="sourcePoint"/>
                        <mxPoint x="506.25" y="470" as="targetPoint"/>
                    </mxGeometry>
                </mxCell>
                <mxCell id="vz_G6OBotihetE9_b4QI-472" value="" style="endArrow=none;dashed=1;html=1;rounded=0;entryX=1;entryY=0.5;entryDx=0;entryDy=0;" parent="1" source="vz_G6OBotihetE9_b4QI-470" edge="1">
                    <mxGeometry width="50" height="50" relative="1" as="geometry">
                        <mxPoint x="510" y="469" as="sourcePoint"/>
                        <mxPoint x="510" y="399" as="targetPoint"/>
                    </mxGeometry>
                </mxCell>
                <mxCell id="vz_G6OBotihetE9_b4QI-473" value="Chọn nút Thêm" style="text;html=1;align=center;verticalAlign=middle;resizable=0;points=[];autosize=1;strokeColor=none;fillColor=none;" parent="1" vertex="1">
                    <mxGeometry x="305" y="448" width="110" height="30" as="geometry"/>
                </mxCell>
                <mxCell id="vz_G6OBotihetE9_b4QI-496" value="" style="endArrow=none;dashed=1;html=1;rounded=0;entryX=1;entryY=0.5;entryDx=0;entryDy=0;" parent="1" edge="1">
                    <mxGeometry width="50" height="50" relative="1" as="geometry">
                        <mxPoint x="510" y="1120" as="sourcePoint"/>
                        <mxPoint x="510" y="1018.75" as="targetPoint"/>
                        <Array as="points"/>
                    </mxGeometry>
                </mxCell>
                <mxCell id="vz_G6OBotihetE9_b4QI-503" value="" style="endArrow=none;dashed=1;html=1;rounded=0;entryX=0.5;entryY=1;entryDx=0;entryDy=0;" parent="1" target="vz_G6OBotihetE9_b4QI-504" edge="1">
                    <mxGeometry width="50" height="50" relative="1" as="geometry">
                        <mxPoint x="226" y="690" as="sourcePoint"/>
                        <mxPoint x="229.29000000000002" y="200" as="targetPoint"/>
                    </mxGeometry>
                </mxCell>
                <mxCell id="vz_G6OBotihetE9_b4QI-504" value="" style="whiteSpace=wrap;html=1;rotation=90;" parent="1" vertex="1">
                    <mxGeometry x="205" y="430" width="50" height="7.5" as="geometry"/>
                </mxCell>
                <mxCell id="vz_G6OBotihetE9_b4QI-506" value="" style="endArrow=none;dashed=1;html=1;rounded=0;entryX=0.5;entryY=1;entryDx=0;entryDy=0;" parent="1" edge="1">
                    <mxGeometry width="50" height="50" relative="1" as="geometry">
                        <mxPoint x="229" y="1120" as="sourcePoint"/>
                        <mxPoint x="226.25" y="683" as="targetPoint"/>
                    </mxGeometry>
                </mxCell>
                <mxCell id="vz_G6OBotihetE9_b4QI-539" value="" style="endArrow=classic;html=1;rounded=0;entryX=0;entryY=1;entryDx=0;entryDy=0;" parent="1" edge="1">
                    <mxGeometry width="50" height="50" relative="1" as="geometry">
                        <mxPoint x="1550" y="465.34000000000003" as="sourcePoint"/>
                        <mxPoint x="1826.25" y="465.34000000000003" as="targetPoint"/>
                    </mxGeometry>
                </mxCell>
                <mxCell id="vz_G6OBotihetE9_b4QI-541" value="" style="endArrow=classic;html=1;rounded=0;entryX=0;entryY=1;entryDx=0;entryDy=0;" parent="1" edge="1">
                    <mxGeometry width="50" height="50" relative="1" as="geometry">
                        <mxPoint x="510" y="520" as="sourcePoint"/>
                        <mxPoint x="786.25" y="520" as="targetPoint"/>
                    </mxGeometry>
                </mxCell>
                <mxCell id="vz_G6OBotihetE9_b4QI-542" value="Gửi thông tin lên hệ thống" style="text;html=1;align=center;verticalAlign=middle;resizable=0;points=[];autosize=1;strokeColor=none;fillColor=none;" parent="1" vertex="1">
                    <mxGeometry x="575" y="490" width="160" height="30" as="geometry"/>
                </mxCell>
                <mxCell id="vz_G6OBotihetE9_b4QI-544" value="" style="endArrow=none;dashed=1;html=1;rounded=0;entryX=1;entryY=0.5;entryDx=0;entryDy=0;" parent="1" target="vz_G6OBotihetE9_b4QI-543" edge="1">
                    <mxGeometry width="50" height="50" relative="1" as="geometry">
                        <mxPoint x="790" y="1080" as="sourcePoint"/>
                        <mxPoint x="789.29" y="200" as="targetPoint"/>
                    </mxGeometry>
                </mxCell>
                <mxCell id="vz_G6OBotihetE9_b4QI-543" value="" style="whiteSpace=wrap;html=1;rotation=90;" parent="1" vertex="1">
                    <mxGeometry x="765" y="546.79" width="50" height="7.5" as="geometry"/>
                </mxCell>
                <mxCell id="vz_G6OBotihetE9_b4QI-545" style="rounded=0;orthogonalLoop=1;jettySize=auto;html=1;exitX=1;exitY=1;exitDx=0;exitDy=0;" parent="1" edge="1">
                    <mxGeometry relative="1" as="geometry">
                        <mxPoint x="510" y="576" as="targetPoint"/>
                        <mxPoint x="786" y="576.5" as="sourcePoint"/>
                    </mxGeometry>
                </mxCell>
                <mxCell id="vz_G6OBotihetE9_b4QI-546" value="Trả về kết quả" style="text;html=1;align=center;verticalAlign=middle;resizable=0;points=[];autosize=1;strokeColor=none;fillColor=none;" parent="1" vertex="1">
                    <mxGeometry x="590" y="550.25" width="100" height="30" as="geometry"/>
                </mxCell>
                <mxCell id="vz_G6OBotihetE9_b4QI-547" value="" style="whiteSpace=wrap;html=1;rotation=90;" parent="1" vertex="1">
                    <mxGeometry x="485" y="595" width="50" height="7.5" as="geometry"/>
                </mxCell>
                <mxCell id="vz_G6OBotihetE9_b4QI-548" value="" style="endArrow=none;dashed=1;html=1;rounded=0;entryX=1;entryY=0.5;entryDx=0;entryDy=0;" parent="1" edge="1">
                    <mxGeometry width="50" height="50" relative="1" as="geometry">
                        <mxPoint x="510" y="750" as="sourcePoint"/>
                        <mxPoint x="510" y="624" as="targetPoint"/>
                        <Array as="points"/>
                    </mxGeometry>
                </mxCell>
                <mxCell id="vz_G6OBotihetE9_b4QI-549" style="rounded=0;orthogonalLoop=1;jettySize=auto;html=1;" parent="1" edge="1">
                    <mxGeometry relative="1" as="geometry">
                        <mxPoint x="230" y="625" as="targetPoint"/>
                        <mxPoint x="510" y="625" as="sourcePoint"/>
                    </mxGeometry>
                </mxCell>
                <mxCell id="vz_G6OBotihetE9_b4QI-550" value="Hiển thị thông báo thành công" style="text;html=1;align=center;verticalAlign=middle;resizable=0;points=[];autosize=1;strokeColor=none;fillColor=none;" parent="1" vertex="1">
                    <mxGeometry x="275" y="602.5" width="180" height="30" as="geometry"/>
                </mxCell>
                <mxCell id="vz_G6OBotihetE9_b4QI-551" value="" style="endArrow=none;dashed=1;html=1;rounded=0;entryX=1;entryY=0.5;entryDx=0;entryDy=0;" parent="1" edge="1">
                    <mxGeometry width="50" height="50" relative="1" as="geometry">
                        <mxPoint x="510" y="875" as="sourcePoint"/>
                        <mxPoint x="510" y="748.75" as="targetPoint"/>
                        <Array as="points"/>
                    </mxGeometry>
                </mxCell>
                <mxCell id="vz_G6OBotihetE9_b4QI-557" value="" style="endArrow=none;dashed=1;html=1;rounded=0;entryX=1;entryY=0.5;entryDx=0;entryDy=0;" parent="1" edge="1">
                    <mxGeometry width="50" height="50" relative="1" as="geometry">
                        <mxPoint x="510" y="940" as="sourcePoint"/>
                        <mxPoint x="510" y="873.75" as="targetPoint"/>
                        <Array as="points"/>
                    </mxGeometry>
                </mxCell>
                <mxCell id="vz_G6OBotihetE9_b4QI-562" value="" style="endArrow=none;dashed=1;html=1;rounded=0;entryX=1;entryY=0.5;entryDx=0;entryDy=0;" parent="1" edge="1">
                    <mxGeometry width="50" height="50" relative="1" as="geometry">
                        <mxPoint x="510" y="1073.75" as="sourcePoint"/>
                        <mxPoint x="510" y="933.75" as="targetPoint"/>
                        <Array as="points"/>
                    </mxGeometry>
                </mxCell>
                <mxCell id="vz_G6OBotihetE9_b4QI-566" value="" style="endArrow=none;dashed=1;html=1;rounded=0;entryX=1;entryY=0.5;entryDx=0;entryDy=0;" parent="1" edge="1">
                    <mxGeometry width="50" height="50" relative="1" as="geometry">
                        <mxPoint x="790" y="1215" as="sourcePoint"/>
                        <mxPoint x="790" y="1073.75" as="targetPoint"/>
                    </mxGeometry>
                </mxCell>
                <mxCell id="vz_G6OBotihetE9_b4QI-575" value="" style="endArrow=classic;html=1;rounded=0;edgeStyle=orthogonalEdgeStyle;entryX=0.072;entryY=0.076;entryDx=0;entryDy=0;entryPerimeter=0;" parent="1" edge="1">
                    <mxGeometry width="50" height="50" relative="1" as="geometry">
                        <mxPoint x="800" y="640.5" as="sourcePoint"/>
                        <mxPoint x="803" y="682.5" as="targetPoint"/>
                        <Array as="points">
                            <mxPoint x="870" y="640.5"/>
                            <mxPoint x="870" y="680.5"/>
                            <mxPoint x="810" y="680.5"/>
                            <mxPoint x="810" y="682.5"/>
                        </Array>
                    </mxGeometry>
                </mxCell>
                <mxCell id="vz_G6OBotihetE9_b4QI-576" value="Lưu hóa đơn vào hệ thống" style="text;html=1;align=center;verticalAlign=middle;resizable=0;points=[];autosize=1;strokeColor=none;fillColor=none;" parent="1" vertex="1">
                    <mxGeometry x="790" y="608" width="170" height="30" as="geometry"/>
                </mxCell>
                <mxCell id="vz_G6OBotihetE9_b4QI-579" value="" style="endArrow=none;dashed=1;html=1;rounded=0;entryX=1;entryY=0.5;entryDx=0;entryDy=0;" parent="1" edge="1">
                    <mxGeometry width="50" height="50" relative="1" as="geometry">
                        <mxPoint x="510" y="570" as="sourcePoint"/>
                        <mxPoint x="509.62" y="516.25" as="targetPoint"/>
                        <Array as="points"/>
                    </mxGeometry>
                </mxCell>
                <mxCell id="vz_G6OBotihetE9_b4QI-622" style="edgeStyle=orthogonalEdgeStyle;rounded=0;orthogonalLoop=1;jettySize=auto;html=1;exitX=1;exitY=0.5;exitDx=0;exitDy=0;endArrow=none;endFill=0;dashed=1;dashPattern=8 8;" parent="1" source="vz_G6OBotihetE9_b4QI-634" edge="1">
                    <mxGeometry relative="1" as="geometry">
                        <mxPoint x="4519.333333333333" y="1160" as="targetPoint"/>
                    </mxGeometry>
                </mxCell>
                <mxCell id="vz_G6OBotihetE9_b4QI-619" value="Người dùng" style="rounded=0;whiteSpace=wrap;html=1;" parent="1" vertex="1">
                    <mxGeometry x="4460" y="130" width="120" height="60" as="geometry"/>
                </mxCell>
                <mxCell id="vz_G6OBotihetE9_b4QI-620" value="Giao diện" style="rounded=0;whiteSpace=wrap;html=1;" parent="1" vertex="1">
                    <mxGeometry x="4740" y="130" width="120" height="60" as="geometry"/>
                </mxCell>
                <mxCell id="vz_G6OBotihetE9_b4QI-621" value="Hệ thống" style="rounded=0;whiteSpace=wrap;html=1;" parent="1" vertex="1">
                    <mxGeometry x="5020" y="130" width="120" height="60" as="geometry"/>
                </mxCell>
                <mxCell id="vz_G6OBotihetE9_b4QI-623" style="edgeStyle=orthogonalEdgeStyle;rounded=0;orthogonalLoop=1;jettySize=auto;html=1;exitX=1;exitY=0.5;exitDx=0;exitDy=0;endArrow=none;endFill=0;dashed=1;dashPattern=8 8;" parent="1" source="vz_G6OBotihetE9_b4QI-646" edge="1">
                    <mxGeometry relative="1" as="geometry">
                        <mxPoint x="4798.893333333333" y="1160" as="targetPoint"/>
                        <mxPoint x="4799.56" y="190" as="sourcePoint"/>
                    </mxGeometry>
                </mxCell>
                <mxCell id="vz_G6OBotihetE9_b4QI-624" style="edgeStyle=orthogonalEdgeStyle;rounded=0;orthogonalLoop=1;jettySize=auto;html=1;exitX=0.5;exitY=1;exitDx=0;exitDy=0;endArrow=none;endFill=0;dashed=1;dashPattern=8 8;" parent="1" edge="1">
                    <mxGeometry relative="1" as="geometry">
                        <mxPoint x="5078.893333333333" y="1160" as="targetPoint"/>
                        <mxPoint x="5079.56" y="190" as="sourcePoint"/>
                    </mxGeometry>
                </mxCell>
                <mxCell id="vz_G6OBotihetE9_b4QI-628" value="" style="endArrow=classic;html=1;rounded=0;entryX=0;entryY=1;entryDx=0;entryDy=0;" parent="1" edge="1">
                    <mxGeometry width="50" height="50" relative="1" as="geometry">
                        <mxPoint x="4520" y="250.87000000000006" as="sourcePoint"/>
                        <mxPoint x="4796.25" y="250.87000000000006" as="targetPoint"/>
                    </mxGeometry>
                </mxCell>
                <mxCell id="vz_G6OBotihetE9_b4QI-630" value="" style="edgeStyle=orthogonalEdgeStyle;rounded=0;orthogonalLoop=1;jettySize=auto;html=1;exitX=0.5;exitY=1;exitDx=0;exitDy=0;endArrow=none;endFill=0;dashed=1;dashPattern=8 8;" parent="1" target="vz_G6OBotihetE9_b4QI-629" edge="1">
                    <mxGeometry relative="1" as="geometry">
                        <mxPoint x="4798.893333333333" y="1160" as="targetPoint"/>
                        <mxPoint x="4799.56" y="190" as="sourcePoint"/>
                    </mxGeometry>
                </mxCell>
                <mxCell id="vz_G6OBotihetE9_b4QI-629" value="" style="whiteSpace=wrap;html=1;rotation=90;" parent="1" vertex="1">
                    <mxGeometry x="4775" y="275.5" width="50" height="7.5" as="geometry"/>
                </mxCell>
                <mxCell id="vz_G6OBotihetE9_b4QI-631" style="rounded=0;orthogonalLoop=1;jettySize=auto;html=1;" parent="1" edge="1">
                    <mxGeometry relative="1" as="geometry">
                        <mxPoint x="4520" y="306.19" as="targetPoint"/>
                        <mxPoint x="4790" y="306" as="sourcePoint"/>
                    </mxGeometry>
                </mxCell>
                <mxCell id="vz_G6OBotihetE9_b4QI-635" value="" style="edgeStyle=orthogonalEdgeStyle;rounded=0;orthogonalLoop=1;jettySize=auto;html=1;exitX=0.5;exitY=1;exitDx=0;exitDy=0;endArrow=none;endFill=0;dashed=1;dashPattern=8 8;" parent="1" source="vz_G6OBotihetE9_b4QI-619" target="vz_G6OBotihetE9_b4QI-634" edge="1">
                    <mxGeometry relative="1" as="geometry">
                        <mxPoint x="4519.333333333333" y="1160" as="targetPoint"/>
                        <mxPoint x="4520" y="190" as="sourcePoint"/>
                    </mxGeometry>
                </mxCell>
                <mxCell id="vz_G6OBotihetE9_b4QI-634" value="" style="whiteSpace=wrap;html=1;rotation=90;" parent="1" vertex="1">
                    <mxGeometry x="4495" y="330.5" width="50" height="7.5" as="geometry"/>
                </mxCell>
                <mxCell id="vz_G6OBotihetE9_b4QI-637" value="" style="edgeStyle=orthogonalEdgeStyle;rounded=0;orthogonalLoop=1;jettySize=auto;html=1;exitX=1;exitY=0.5;exitDx=0;exitDy=0;endArrow=none;endFill=0;dashed=1;dashPattern=8 8;" parent="1" source="vz_G6OBotihetE9_b4QI-629" target="vz_G6OBotihetE9_b4QI-636" edge="1">
                    <mxGeometry relative="1" as="geometry">
                        <mxPoint x="4798.893333333333" y="1160" as="targetPoint"/>
                        <mxPoint x="4800" y="304" as="sourcePoint"/>
                    </mxGeometry>
                </mxCell>
                <mxCell id="vz_G6OBotihetE9_b4QI-636" value="" style="whiteSpace=wrap;html=1;rotation=90;" parent="1" vertex="1">
                    <mxGeometry x="4775" y="381.25" width="50" height="7.5" as="geometry"/>
                </mxCell>
                <mxCell id="vz_G6OBotihetE9_b4QI-638" value="" style="endArrow=classic;html=1;rounded=0;entryX=0;entryY=1;entryDx=0;entryDy=0;" parent="1" edge="1">
                    <mxGeometry width="50" height="50" relative="1" as="geometry">
                        <mxPoint x="4520" y="361.39000000000004" as="sourcePoint"/>
                        <mxPoint x="4796.25" y="361.39000000000004" as="targetPoint"/>
                    </mxGeometry>
                </mxCell>
                <mxCell id="vz_G6OBotihetE9_b4QI-639" value="" style="endArrow=classic;html=1;rounded=0;exitX=1;exitY=0;exitDx=0;exitDy=0;" parent="1" source="vz_G6OBotihetE9_b4QI-636" edge="1">
                    <mxGeometry width="50" height="50" relative="1" as="geometry">
                        <mxPoint x="4810" y="410" as="sourcePoint"/>
                        <mxPoint x="5060" y="410" as="targetPoint"/>
                    </mxGeometry>
                </mxCell>
                <mxCell id="vz_G6OBotihetE9_b4QI-640" value="" style="endArrow=classic;html=1;rounded=0;edgeStyle=orthogonalEdgeStyle;entryX=0.072;entryY=0.076;entryDx=0;entryDy=0;entryPerimeter=0;" parent="1" edge="1">
                    <mxGeometry width="50" height="50" relative="1" as="geometry">
                        <mxPoint x="5080" y="492" as="sourcePoint"/>
                        <mxPoint x="5088" y="533.49" as="targetPoint"/>
                        <Array as="points">
                            <mxPoint x="5155" y="491.48999999999995"/>
                            <mxPoint x="5155" y="531.49"/>
                            <mxPoint x="5095" y="531.49"/>
                            <mxPoint x="5095" y="533.49"/>
                        </Array>
                    </mxGeometry>
                </mxCell>
                <mxCell id="vz_G6OBotihetE9_b4QI-641" value="Tìm kiếm thông tin và tính toán" style="text;html=1;align=center;verticalAlign=middle;resizable=0;points=[];autosize=1;strokeColor=none;fillColor=none;" parent="1" vertex="1">
                    <mxGeometry x="5070" y="459.99999999999994" width="190" height="30" as="geometry"/>
                </mxCell>
                <mxCell id="vz_G6OBotihetE9_b4QI-643" value="" style="whiteSpace=wrap;html=1;rotation=90;" parent="1" vertex="1">
                    <mxGeometry x="5055" y="555.62" width="50" height="7.5" as="geometry"/>
                </mxCell>
                <mxCell id="vz_G6OBotihetE9_b4QI-644" style="rounded=0;orthogonalLoop=1;jettySize=auto;html=1;exitX=1;exitY=1;exitDx=0;exitDy=0;" parent="1" edge="1">
                    <mxGeometry relative="1" as="geometry">
                        <mxPoint x="4802" y="586.54" as="targetPoint"/>
                        <mxPoint x="5078" y="586.54" as="sourcePoint"/>
                    </mxGeometry>
                </mxCell>
                <mxCell id="vz_G6OBotihetE9_b4QI-645" value="Trả về kết quả" style="text;html=1;align=center;verticalAlign=middle;resizable=0;points=[];autosize=1;strokeColor=none;fillColor=none;" parent="1" vertex="1">
                    <mxGeometry x="4910" y="557.87" width="100" height="30" as="geometry"/>
                </mxCell>
                <mxCell id="vz_G6OBotihetE9_b4QI-648" value="" style="edgeStyle=orthogonalEdgeStyle;rounded=0;orthogonalLoop=1;jettySize=auto;html=1;exitX=1;exitY=0.5;exitDx=0;exitDy=0;endArrow=none;endFill=0;dashed=1;dashPattern=8 8;" parent="1" source="vz_G6OBotihetE9_b4QI-636" target="vz_G6OBotihetE9_b4QI-646" edge="1">
                    <mxGeometry relative="1" as="geometry">
                        <mxPoint x="4798.893333333333" y="1160" as="targetPoint"/>
                        <mxPoint x="4800" y="410" as="sourcePoint"/>
                    </mxGeometry>
                </mxCell>
                <mxCell id="vz_G6OBotihetE9_b4QI-646" value="" style="whiteSpace=wrap;html=1;rotation=90;" parent="1" vertex="1">
                    <mxGeometry x="4775" y="607.5" width="50" height="7.5" as="geometry"/>
                </mxCell>
                <mxCell id="vz_G6OBotihetE9_b4QI-649" style="rounded=0;orthogonalLoop=1;jettySize=auto;html=1;exitX=1;exitY=1;exitDx=0;exitDy=0;" parent="1" edge="1">
                    <mxGeometry relative="1" as="geometry">
                        <mxPoint x="4520" y="638" as="targetPoint"/>
                        <mxPoint x="4796" y="638" as="sourcePoint"/>
                    </mxGeometry>
                </mxCell>
                <mxCell id="vz_G6OBotihetE9_b4QI-651" value="Hiển thị danh sách và tổng số tiền" style="text;html=1;align=center;verticalAlign=middle;resizable=0;points=[];autosize=1;strokeColor=none;fillColor=none;" parent="1" vertex="1">
                    <mxGeometry x="4549" y="607.5" width="200" height="30" as="geometry"/>
                </mxCell>
                <mxCell id="vz_G6OBotihetE9_b4QI-652" value="&lt;font style=&quot;font-size: 11px;&quot;&gt;Chọn chức năng tính trung bình thành tiền trong&lt;br/&gt;tháng&amp;nbsp;&lt;/font&gt;" style="text;html=1;align=center;verticalAlign=middle;resizable=0;points=[];autosize=1;strokeColor=none;fillColor=none;" parent="1" vertex="1">
                    <mxGeometry x="4530" y="213" width="260" height="40" as="geometry"/>
                </mxCell>
                <mxCell id="vz_G6OBotihetE9_b4QI-653" value="Hiển thị ô chọn tháng năm cần tính." style="text;html=1;align=center;verticalAlign=middle;resizable=0;points=[];autosize=1;strokeColor=none;fillColor=none;" parent="1" vertex="1">
                    <mxGeometry x="4555" y="278" width="210" height="30" as="geometry"/>
                </mxCell>
                <mxCell id="vz_G6OBotihetE9_b4QI-654" value="Chọn năm hiện tại" style="text;html=1;align=center;verticalAlign=middle;resizable=0;points=[];autosize=1;strokeColor=none;fillColor=none;" parent="1" vertex="1">
                    <mxGeometry x="4600" y="332.5" width="120" height="30" as="geometry"/>
                </mxCell>
                <mxCell id="vz_G6OBotihetE9_b4QI-655" value="Gửi yêu cầu&amp;nbsp;&lt;br&gt;" style="text;html=1;align=center;verticalAlign=middle;resizable=0;points=[];autosize=1;strokeColor=none;fillColor=none;" parent="1" vertex="1">
                    <mxGeometry x="4875" y="378" width="90" height="30" as="geometry"/>
                </mxCell>
                <mxCell id="vz_G6OBotihetE9_b4QI-659" style="edgeStyle=orthogonalEdgeStyle;rounded=0;orthogonalLoop=1;jettySize=auto;html=1;exitX=1;exitY=0.5;exitDx=0;exitDy=0;endArrow=none;endFill=0;dashed=1;dashPattern=8 8;" parent="1" source="vz_G6OBotihetE9_b4QI-702" edge="1">
                    <mxGeometry relative="1" as="geometry">
                        <mxPoint x="5409.333333333333" y="1160" as="targetPoint"/>
                    </mxGeometry>
                </mxCell>
                <mxCell id="vz_G6OBotihetE9_b4QI-660" value="Người dùng" style="rounded=0;whiteSpace=wrap;html=1;" parent="1" vertex="1">
                    <mxGeometry x="5350" y="130" width="120" height="60" as="geometry"/>
                </mxCell>
                <mxCell id="vz_G6OBotihetE9_b4QI-661" value="Giao diện" style="rounded=0;whiteSpace=wrap;html=1;" parent="1" vertex="1">
                    <mxGeometry x="5630" y="130" width="120" height="60" as="geometry"/>
                </mxCell>
                <mxCell id="vz_G6OBotihetE9_b4QI-662" value="Hệ thống" style="rounded=0;whiteSpace=wrap;html=1;" parent="1" vertex="1">
                    <mxGeometry x="5910" y="130" width="120" height="60" as="geometry"/>
                </mxCell>
                <mxCell id="vz_G6OBotihetE9_b4QI-663" style="rounded=0;orthogonalLoop=1;jettySize=auto;html=1;exitX=1;exitY=0.25;exitDx=0;exitDy=0;endArrow=none;endFill=0;dashed=1;dashPattern=8 8;" parent="1" source="vz_G6OBotihetE9_b4QI-706" edge="1">
                    <mxGeometry relative="1" as="geometry">
                        <mxPoint x="5688.893333333333" y="1160" as="targetPoint"/>
                        <mxPoint x="5690" y="636.25" as="sourcePoint"/>
                    </mxGeometry>
                </mxCell>
                <mxCell id="vz_G6OBotihetE9_b4QI-664" style="edgeStyle=orthogonalEdgeStyle;rounded=0;orthogonalLoop=1;jettySize=auto;html=1;exitX=0.5;exitY=1;exitDx=0;exitDy=0;endArrow=none;endFill=0;dashed=1;dashPattern=8 8;" parent="1" edge="1">
                    <mxGeometry relative="1" as="geometry">
                        <mxPoint x="5968.893333333333" y="1160" as="targetPoint"/>
                        <mxPoint x="5969.56" y="190" as="sourcePoint"/>
                        <Array as="points">
                            <mxPoint x="5950" y="190"/>
                            <mxPoint x="5950" y="1160"/>
                        </Array>
                    </mxGeometry>
                </mxCell>
                <mxCell id="vz_G6OBotihetE9_b4QI-665" value="" style="endArrow=classic;html=1;rounded=0;entryX=0;entryY=1;entryDx=0;entryDy=0;" parent="1" edge="1">
                    <mxGeometry width="50" height="50" relative="1" as="geometry">
                        <mxPoint x="5410" y="250.87000000000006" as="sourcePoint"/>
                        <mxPoint x="5686.25" y="250.87000000000006" as="targetPoint"/>
                    </mxGeometry>
                </mxCell>
                <mxCell id="vz_G6OBotihetE9_b4QI-666" value="" style="edgeStyle=orthogonalEdgeStyle;rounded=0;orthogonalLoop=1;jettySize=auto;html=1;exitX=0.5;exitY=1;exitDx=0;exitDy=0;endArrow=none;endFill=0;dashed=1;dashPattern=8 8;" parent="1" target="vz_G6OBotihetE9_b4QI-667" edge="1">
                    <mxGeometry relative="1" as="geometry">
                        <mxPoint x="5688.893333333333" y="1160" as="targetPoint"/>
                        <mxPoint x="5689.56" y="190" as="sourcePoint"/>
                    </mxGeometry>
                </mxCell>
                <mxCell id="vz_G6OBotihetE9_b4QI-667" value="" style="whiteSpace=wrap;html=1;rotation=90;" parent="1" vertex="1">
                    <mxGeometry x="5665" y="275.5" width="50" height="7.5" as="geometry"/>
                </mxCell>
                <mxCell id="vz_G6OBotihetE9_b4QI-668" style="rounded=0;orthogonalLoop=1;jettySize=auto;html=1;" parent="1" edge="1">
                    <mxGeometry relative="1" as="geometry">
                        <mxPoint x="5410" y="306.19" as="targetPoint"/>
                        <mxPoint x="5680" y="306" as="sourcePoint"/>
                    </mxGeometry>
                </mxCell>
                <mxCell id="vz_G6OBotihetE9_b4QI-669" value="" style="edgeStyle=orthogonalEdgeStyle;rounded=0;orthogonalLoop=1;jettySize=auto;html=1;exitX=0.5;exitY=1;exitDx=0;exitDy=0;endArrow=none;endFill=0;dashed=1;dashPattern=8 8;" parent="1" source="vz_G6OBotihetE9_b4QI-660" target="vz_G6OBotihetE9_b4QI-670" edge="1">
                    <mxGeometry relative="1" as="geometry">
                        <mxPoint x="5409.333333333333" y="1160" as="targetPoint"/>
                        <mxPoint x="5410" y="190" as="sourcePoint"/>
                    </mxGeometry>
                </mxCell>
                <mxCell id="vz_G6OBotihetE9_b4QI-670" value="" style="whiteSpace=wrap;html=1;rotation=90;" parent="1" vertex="1">
                    <mxGeometry x="5385" y="330.5" width="50" height="7.5" as="geometry"/>
                </mxCell>
                <mxCell id="vz_G6OBotihetE9_b4QI-671" value="" style="edgeStyle=orthogonalEdgeStyle;rounded=0;orthogonalLoop=1;jettySize=auto;html=1;exitX=1;exitY=0.5;exitDx=0;exitDy=0;endArrow=none;endFill=0;dashed=1;dashPattern=8 8;" parent="1" source="vz_G6OBotihetE9_b4QI-667" target="vz_G6OBotihetE9_b4QI-672" edge="1">
                    <mxGeometry relative="1" as="geometry">
                        <mxPoint x="5688.893333333333" y="1160" as="targetPoint"/>
                        <mxPoint x="5690" y="304" as="sourcePoint"/>
                    </mxGeometry>
                </mxCell>
                <mxCell id="vz_G6OBotihetE9_b4QI-672" value="" style="whiteSpace=wrap;html=1;rotation=90;" parent="1" vertex="1">
                    <mxGeometry x="5665" y="381.25" width="50" height="7.5" as="geometry"/>
                </mxCell>
                <mxCell id="vz_G6OBotihetE9_b4QI-673" value="" style="endArrow=classic;html=1;rounded=0;entryX=0;entryY=1;entryDx=0;entryDy=0;" parent="1" edge="1">
                    <mxGeometry width="50" height="50" relative="1" as="geometry">
                        <mxPoint x="5410" y="361.39000000000004" as="sourcePoint"/>
                        <mxPoint x="5686.25" y="361.39000000000004" as="targetPoint"/>
                    </mxGeometry>
                </mxCell>
                <mxCell id="vz_G6OBotihetE9_b4QI-684" value="Chọn chức năng tính tổng số lượng hóa đơn&amp;nbsp;" style="text;html=1;align=center;verticalAlign=middle;resizable=0;points=[];autosize=1;strokeColor=none;fillColor=none;" parent="1" vertex="1">
                    <mxGeometry x="5420" y="218" width="260" height="30" as="geometry"/>
                </mxCell>
                <mxCell id="vz_G6OBotihetE9_b4QI-685" value="Hiển thị loại hóa đơn theo ngày và theo giờ" style="text;html=1;align=center;verticalAlign=middle;resizable=0;points=[];autosize=1;strokeColor=none;fillColor=none;" parent="1" vertex="1">
                    <mxGeometry x="5425" y="278" width="250" height="30" as="geometry"/>
                </mxCell>
                <mxCell id="vz_G6OBotihetE9_b4QI-686" value="Chọn loại hóa đơn tương ứng" style="text;html=1;align=center;verticalAlign=middle;resizable=0;points=[];autosize=1;strokeColor=none;fillColor=none;" parent="1" vertex="1">
                    <mxGeometry x="5460" y="332.5" width="180" height="30" as="geometry"/>
                </mxCell>
                <mxCell id="vz_G6OBotihetE9_b4QI-688" value="TRUNG BÌNH" style="rounded=0;whiteSpace=wrap;html=1;" parent="1" vertex="1">
                    <mxGeometry x="4450" y="20" width="120" height="60" as="geometry"/>
                </mxCell>
                <mxCell id="vz_G6OBotihetE9_b4QI-689" value="Đếm" style="rounded=0;whiteSpace=wrap;html=1;" parent="1" vertex="1">
                    <mxGeometry x="5340" y="10" width="120" height="60" as="geometry"/>
                </mxCell>
                <mxCell id="vz_G6OBotihetE9_b4QI-700" style="rounded=0;orthogonalLoop=1;jettySize=auto;html=1;" parent="1" edge="1">
                    <mxGeometry relative="1" as="geometry">
                        <mxPoint x="5414" y="408.19" as="targetPoint"/>
                        <mxPoint x="5684" y="408" as="sourcePoint"/>
                    </mxGeometry>
                </mxCell>
                <mxCell id="vz_G6OBotihetE9_b4QI-701" value="Chọn thời điểm muốn đếm (giờ / ngày/ tháng)" style="text;html=1;align=center;verticalAlign=middle;resizable=0;points=[];autosize=1;strokeColor=none;fillColor=none;" parent="1" vertex="1">
                    <mxGeometry x="5410" y="381.25" width="270" height="30" as="geometry"/>
                </mxCell>
                <mxCell id="vz_G6OBotihetE9_b4QI-703" value="" style="edgeStyle=orthogonalEdgeStyle;rounded=0;orthogonalLoop=1;jettySize=auto;html=1;exitX=1;exitY=0.5;exitDx=0;exitDy=0;endArrow=none;endFill=0;dashed=1;dashPattern=8 8;" parent="1" source="vz_G6OBotihetE9_b4QI-670" target="vz_G6OBotihetE9_b4QI-702" edge="1">
                    <mxGeometry relative="1" as="geometry">
                        <mxPoint x="5409.333333333333" y="1160" as="targetPoint"/>
                        <mxPoint x="5410" y="359" as="sourcePoint"/>
                    </mxGeometry>
                </mxCell>
                <mxCell id="vz_G6OBotihetE9_b4QI-702" value="" style="whiteSpace=wrap;html=1;rotation=90;" parent="1" vertex="1">
                    <mxGeometry x="5385" y="437.5" width="50" height="7.5" as="geometry"/>
                </mxCell>
                <mxCell id="vz_G6OBotihetE9_b4QI-704" value="" style="endArrow=classic;html=1;rounded=0;entryX=0;entryY=1;entryDx=0;entryDy=0;" parent="1" edge="1">
                    <mxGeometry width="50" height="50" relative="1" as="geometry">
                        <mxPoint x="5414" y="467.05000000000007" as="sourcePoint"/>
                        <mxPoint x="5690.25" y="467.05000000000007" as="targetPoint"/>
                    </mxGeometry>
                </mxCell>
                <mxCell id="vz_G6OBotihetE9_b4QI-705" value="Chọn thời điểm" style="text;html=1;align=center;verticalAlign=middle;resizable=0;points=[];autosize=1;strokeColor=none;fillColor=none;" parent="1" vertex="1">
                    <mxGeometry x="5485" y="438" width="110" height="30" as="geometry"/>
                </mxCell>
                <mxCell id="vz_G6OBotihetE9_b4QI-707" value="" style="rounded=0;orthogonalLoop=1;jettySize=auto;html=1;exitX=1;exitY=0.25;exitDx=0;exitDy=0;endArrow=none;endFill=0;dashed=1;dashPattern=8 8;" parent="1" source="vz_G6OBotihetE9_b4QI-672" target="vz_G6OBotihetE9_b4QI-706" edge="1">
                    <mxGeometry relative="1" as="geometry">
                        <mxPoint x="5688.893333333333" y="1160" as="targetPoint"/>
                        <mxPoint x="5692" y="410" as="sourcePoint"/>
                    </mxGeometry>
                </mxCell>
                <mxCell id="vz_G6OBotihetE9_b4QI-706" value="" style="whiteSpace=wrap;html=1;rotation=90;" parent="1" vertex="1">
                    <mxGeometry x="5665" y="490" width="50" height="7.5" as="geometry"/>
                </mxCell>
                <mxCell id="vz_G6OBotihetE9_b4QI-708" value="Tìm kiếm thông tin và tính toán" style="text;html=1;align=center;verticalAlign=middle;resizable=0;points=[];autosize=1;strokeColor=none;fillColor=none;" parent="1" vertex="1">
                    <mxGeometry x="5970" y="569" width="190" height="30" as="geometry"/>
                </mxCell>
                <mxCell id="vz_G6OBotihetE9_b4QI-709" value="" style="endArrow=classic;html=1;rounded=0;exitX=1;exitY=0;exitDx=0;exitDy=0;" parent="1" edge="1">
                    <mxGeometry width="50" height="50" relative="1" as="geometry">
                        <mxPoint x="5694" y="518.73" as="sourcePoint"/>
                        <mxPoint x="5950" y="519" as="targetPoint"/>
                    </mxGeometry>
                </mxCell>
                <mxCell id="vz_G6OBotihetE9_b4QI-710" value="" style="endArrow=classic;html=1;rounded=0;edgeStyle=orthogonalEdgeStyle;entryX=0.072;entryY=0.076;entryDx=0;entryDy=0;entryPerimeter=0;" parent="1" edge="1">
                    <mxGeometry width="50" height="50" relative="1" as="geometry">
                        <mxPoint x="5950" y="601" as="sourcePoint"/>
                        <mxPoint x="5978" y="642.2199999999998" as="targetPoint"/>
                        <Array as="points">
                            <mxPoint x="6045" y="600.2199999999998"/>
                            <mxPoint x="6045" y="640.2199999999998"/>
                            <mxPoint x="5985" y="640.2199999999998"/>
                            <mxPoint x="5985" y="642.2199999999998"/>
                        </Array>
                    </mxGeometry>
                </mxCell>
                <mxCell id="vz_G6OBotihetE9_b4QI-712" style="rounded=0;orthogonalLoop=1;jettySize=auto;html=1;exitX=1;exitY=1;exitDx=0;exitDy=0;startArrow=none;entryX=0.411;entryY=0.037;entryDx=0;entryDy=0;entryPerimeter=0;" parent="1" edge="1" target="vz_G6OBotihetE9_b4QI-714" source="vz_G6OBotihetE9_b4QI-711">
                    <mxGeometry relative="1" as="geometry">
                        <mxPoint x="5692" y="695.27" as="targetPoint"/>
                        <mxPoint x="5968" y="695.27" as="sourcePoint"/>
                    </mxGeometry>
                </mxCell>
                <mxCell id="vz_G6OBotihetE9_b4QI-713" value="Trả về kết quả" style="text;html=1;align=center;verticalAlign=middle;resizable=0;points=[];autosize=1;strokeColor=none;fillColor=none;" parent="1" vertex="1">
                    <mxGeometry x="5800" y="666.5999999999999" width="100" height="30" as="geometry"/>
                </mxCell>
                <mxCell id="vz_G6OBotihetE9_b4QI-714" value="" style="whiteSpace=wrap;html=1;rotation=90;" parent="1" vertex="1">
                    <mxGeometry x="5665" y="716.23" width="50" height="7.5" as="geometry"/>
                </mxCell>
                <mxCell id="vz_G6OBotihetE9_b4QI-715" style="rounded=0;orthogonalLoop=1;jettySize=auto;html=1;exitX=1;exitY=1;exitDx=0;exitDy=0;" parent="1" edge="1">
                    <mxGeometry relative="1" as="geometry">
                        <mxPoint x="5410" y="746.73" as="targetPoint"/>
                        <mxPoint x="5686" y="746.73" as="sourcePoint"/>
                    </mxGeometry>
                </mxCell>
                <mxCell id="vz_G6OBotihetE9_b4QI-716" value="Hiển thị danh sách và tổng số phòng theo loại &lt;br&gt;đang được thuê" style="text;html=1;align=center;verticalAlign=middle;resizable=0;points=[];autosize=1;strokeColor=none;fillColor=none;" parent="1" vertex="1">
                    <mxGeometry x="5410" y="709.41" width="270" height="40" as="geometry"/>
                </mxCell>
                <mxCell id="vz_G6OBotihetE9_b4QI-717" value="Gửi yêu cầu&amp;nbsp;&lt;br&gt;" style="text;html=1;align=center;verticalAlign=middle;resizable=0;points=[];autosize=1;strokeColor=none;fillColor=none;" parent="1" vertex="1">
                    <mxGeometry x="5765" y="486.72999999999996" width="90" height="30" as="geometry"/>
                </mxCell>
                <mxCell id="vz_G6OBotihetE9_b4QI-711" value="" style="whiteSpace=wrap;html=1;rotation=90;" parent="1" vertex="1">
                    <mxGeometry x="5930" y="686.4999999999999" width="50" height="7.5" as="geometry"/>
                </mxCell>
            </root>
        </mxGraphModel>
    </diagram>
    <diagram id="NiYHe-oCPnVz5xMzGl7_" name="Sơ đồ ECB">
        <mxGraphModel dx="924" dy="1782" grid="1" gridSize="10" guides="1" tooltips="1" connect="1" arrows="1" fold="1" page="1" pageScale="1" pageWidth="827" pageHeight="1169" math="0" shadow="0">
            <root>
                <mxCell id="0"/>
                <mxCell id="1" parent="0"/>
                <mxCell id="bcJQ_8z_4AMYAqqbhVP1-2" value="Entity Object&lt;br&gt;Hóa đơn theo giờ" style="ellipse;whiteSpace=wrap;html=1;aspect=fixed;" parent="1" vertex="1">
                    <mxGeometry x="640" y="200" width="100" height="100" as="geometry"/>
                </mxCell>
                <mxCell id="bcJQ_8z_4AMYAqqbhVP1-3" value="Entity Object&lt;br&gt;Hóa đơn theo ngày" style="ellipse;whiteSpace=wrap;html=1;aspect=fixed;" parent="1" vertex="1">
                    <mxGeometry x="1740" y="195" width="100" height="100" as="geometry"/>
                </mxCell>
                <mxCell id="a47FSEsqnUJS2z_yxP_v-8" style="rounded=0;orthogonalLoop=1;jettySize=auto;html=1;exitX=1;exitY=0.5;exitDx=0;exitDy=0;entryX=0;entryY=0;entryDx=0;entryDy=0;edgeStyle=orthogonalEdgeStyle;" parent="1" source="bcJQ_8z_4AMYAqqbhVP1-4" target="bcJQ_8z_4AMYAqqbhVP1-2" edge="1">
                    <mxGeometry relative="1" as="geometry"/>
                </mxCell>
                <mxCell id="bcJQ_8z_4AMYAqqbhVP1-4" value="Mã khách hàng" style="ellipse;whiteSpace=wrap;html=1;" parent="1" vertex="1">
                    <mxGeometry x="440" y="60" width="120" height="80" as="geometry"/>
                </mxCell>
                <mxCell id="a47FSEsqnUJS2z_yxP_v-9" style="edgeStyle=orthogonalEdgeStyle;rounded=0;orthogonalLoop=1;jettySize=auto;html=1;exitX=1;exitY=0.5;exitDx=0;exitDy=0;" parent="1" source="bcJQ_8z_4AMYAqqbhVP1-6" target="bcJQ_8z_4AMYAqqbhVP1-2" edge="1">
                    <mxGeometry relative="1" as="geometry"/>
                </mxCell>
                <mxCell id="bcJQ_8z_4AMYAqqbhVP1-6" value="Thời gian nhận phòng" style="ellipse;whiteSpace=wrap;html=1;" parent="1" vertex="1">
                    <mxGeometry x="350" y="210" width="120" height="80" as="geometry"/>
                </mxCell>
                <mxCell id="a47FSEsqnUJS2z_yxP_v-10" style="edgeStyle=orthogonalEdgeStyle;rounded=0;orthogonalLoop=1;jettySize=auto;html=1;exitX=1;exitY=0;exitDx=0;exitDy=0;entryX=0;entryY=1;entryDx=0;entryDy=0;" parent="1" source="bcJQ_8z_4AMYAqqbhVP1-7" target="bcJQ_8z_4AMYAqqbhVP1-2" edge="1">
                    <mxGeometry relative="1" as="geometry"/>
                </mxCell>
                <mxCell id="bcJQ_8z_4AMYAqqbhVP1-7" value="Loại hóa đơn" style="ellipse;whiteSpace=wrap;html=1;fillColor=#dae8fc;strokeColor=#6c8ebf;" parent="1" vertex="1">
                    <mxGeometry x="410" y="350" width="120" height="80" as="geometry"/>
                </mxCell>
                <mxCell id="a47FSEsqnUJS2z_yxP_v-11" style="edgeStyle=orthogonalEdgeStyle;rounded=0;orthogonalLoop=1;jettySize=auto;html=1;exitX=0;exitY=0;exitDx=0;exitDy=0;entryX=1;entryY=1;entryDx=0;entryDy=0;" parent="1" source="bcJQ_8z_4AMYAqqbhVP1-8" target="bcJQ_8z_4AMYAqqbhVP1-2" edge="1">
                    <mxGeometry relative="1" as="geometry"/>
                </mxCell>
                <mxCell id="bcJQ_8z_4AMYAqqbhVP1-8" value="Loại phòng" style="ellipse;whiteSpace=wrap;html=1;" parent="1" vertex="1">
                    <mxGeometry x="870" y="360" width="120" height="80" as="geometry"/>
                </mxCell>
                <mxCell id="a47FSEsqnUJS2z_yxP_v-12" style="edgeStyle=orthogonalEdgeStyle;rounded=0;orthogonalLoop=1;jettySize=auto;html=1;exitX=0;exitY=0.5;exitDx=0;exitDy=0;entryX=1;entryY=0.5;entryDx=0;entryDy=0;" parent="1" source="bcJQ_8z_4AMYAqqbhVP1-9" target="bcJQ_8z_4AMYAqqbhVP1-2" edge="1">
                    <mxGeometry relative="1" as="geometry"/>
                </mxCell>
                <mxCell id="bcJQ_8z_4AMYAqqbhVP1-9" value="Thời gian trả phòng" style="ellipse;whiteSpace=wrap;html=1;" parent="1" vertex="1">
                    <mxGeometry x="920" y="210" width="120" height="80" as="geometry"/>
                </mxCell>
                <mxCell id="a47FSEsqnUJS2z_yxP_v-13" style="edgeStyle=orthogonalEdgeStyle;rounded=0;orthogonalLoop=1;jettySize=auto;html=1;exitX=0;exitY=1;exitDx=0;exitDy=0;" parent="1" source="bcJQ_8z_4AMYAqqbhVP1-10" target="bcJQ_8z_4AMYAqqbhVP1-2" edge="1">
                    <mxGeometry relative="1" as="geometry">
                        <Array as="points">
                            <mxPoint x="730" y="98"/>
                        </Array>
                    </mxGeometry>
                </mxCell>
                <mxCell id="bcJQ_8z_4AMYAqqbhVP1-10" value="Thành tiền" style="ellipse;whiteSpace=wrap;html=1;fillColor=#f8cecc;strokeColor=#b85450;" parent="1" vertex="1">
                    <mxGeometry x="860" y="60" width="120" height="80" as="geometry"/>
                </mxCell>
                <mxCell id="a47FSEsqnUJS2z_yxP_v-14" style="edgeStyle=orthogonalEdgeStyle;rounded=0;orthogonalLoop=1;jettySize=auto;html=1;exitX=1;exitY=1;exitDx=0;exitDy=0;entryX=0;entryY=0;entryDx=0;entryDy=0;" parent="1" source="a47FSEsqnUJS2z_yxP_v-2" target="bcJQ_8z_4AMYAqqbhVP1-3" edge="1">
                    <mxGeometry relative="1" as="geometry"/>
                </mxCell>
                <mxCell id="a47FSEsqnUJS2z_yxP_v-2" value="Mã khách hàng" style="ellipse;whiteSpace=wrap;html=1;" parent="1" vertex="1">
                    <mxGeometry x="1490" y="60" width="120" height="80" as="geometry"/>
                </mxCell>
                <mxCell id="a47FSEsqnUJS2z_yxP_v-15" style="edgeStyle=orthogonalEdgeStyle;rounded=0;orthogonalLoop=1;jettySize=auto;html=1;exitX=1;exitY=0.5;exitDx=0;exitDy=0;entryX=-0.004;entryY=0.407;entryDx=0;entryDy=0;entryPerimeter=0;" parent="1" source="a47FSEsqnUJS2z_yxP_v-3" target="bcJQ_8z_4AMYAqqbhVP1-3" edge="1">
                    <mxGeometry relative="1" as="geometry"/>
                </mxCell>
                <mxCell id="a47FSEsqnUJS2z_yxP_v-3" value="Thời gian nhận phòng" style="ellipse;whiteSpace=wrap;html=1;" parent="1" vertex="1">
                    <mxGeometry x="1420" y="195" width="120" height="80" as="geometry"/>
                </mxCell>
                <mxCell id="a47FSEsqnUJS2z_yxP_v-16" style="edgeStyle=orthogonalEdgeStyle;rounded=0;orthogonalLoop=1;jettySize=auto;html=1;exitX=1;exitY=0;exitDx=0;exitDy=0;entryX=0;entryY=1;entryDx=0;entryDy=0;" parent="1" source="a47FSEsqnUJS2z_yxP_v-4" target="bcJQ_8z_4AMYAqqbhVP1-3" edge="1">
                    <mxGeometry relative="1" as="geometry"/>
                </mxCell>
                <mxCell id="a47FSEsqnUJS2z_yxP_v-4" value="Loại hóa đơn" style="ellipse;whiteSpace=wrap;html=1;fillColor=#ffe6cc;strokeColor=#d79b00;" parent="1" vertex="1">
                    <mxGeometry x="1467" y="360" width="120" height="80" as="geometry"/>
                </mxCell>
                <mxCell id="a47FSEsqnUJS2z_yxP_v-17" style="edgeStyle=orthogonalEdgeStyle;rounded=0;orthogonalLoop=1;jettySize=auto;html=1;exitX=0;exitY=0;exitDx=0;exitDy=0;entryX=1;entryY=1;entryDx=0;entryDy=0;" parent="1" source="a47FSEsqnUJS2z_yxP_v-5" target="bcJQ_8z_4AMYAqqbhVP1-3" edge="1">
                    <mxGeometry relative="1" as="geometry"/>
                </mxCell>
                <mxCell id="a47FSEsqnUJS2z_yxP_v-5" value="Loại phòng" style="ellipse;whiteSpace=wrap;html=1;" parent="1" vertex="1">
                    <mxGeometry x="1980" y="360" width="120" height="80" as="geometry"/>
                </mxCell>
                <mxCell id="a47FSEsqnUJS2z_yxP_v-18" style="edgeStyle=orthogonalEdgeStyle;rounded=0;orthogonalLoop=1;jettySize=auto;html=1;exitX=0;exitY=0.5;exitDx=0;exitDy=0;entryX=1.006;entryY=0.352;entryDx=0;entryDy=0;entryPerimeter=0;" parent="1" source="a47FSEsqnUJS2z_yxP_v-6" target="bcJQ_8z_4AMYAqqbhVP1-3" edge="1">
                    <mxGeometry relative="1" as="geometry"/>
                </mxCell>
                <mxCell id="a47FSEsqnUJS2z_yxP_v-6" value="Thời gian trả phòng" style="ellipse;whiteSpace=wrap;html=1;" parent="1" vertex="1">
                    <mxGeometry x="2040" y="190" width="120" height="80" as="geometry"/>
                </mxCell>
                <mxCell id="a47FSEsqnUJS2z_yxP_v-19" style="edgeStyle=orthogonalEdgeStyle;rounded=0;orthogonalLoop=1;jettySize=auto;html=1;exitX=0;exitY=1;exitDx=0;exitDy=0;entryX=1;entryY=0;entryDx=0;entryDy=0;" parent="1" source="a47FSEsqnUJS2z_yxP_v-7" target="bcJQ_8z_4AMYAqqbhVP1-3" edge="1">
                    <mxGeometry relative="1" as="geometry"/>
                </mxCell>
                <mxCell id="a47FSEsqnUJS2z_yxP_v-7" value="Thành tiền" style="ellipse;whiteSpace=wrap;html=1;fillColor=#e1d5e7;strokeColor=#9673a6;" parent="1" vertex="1">
                    <mxGeometry x="1960" y="60" width="120" height="80" as="geometry"/>
                </mxCell>
                <mxCell id="a47FSEsqnUJS2z_yxP_v-21" style="edgeStyle=orthogonalEdgeStyle;rounded=0;orthogonalLoop=1;jettySize=auto;html=1;exitX=0.5;exitY=0;exitDx=0;exitDy=0;entryX=0.5;entryY=1;entryDx=0;entryDy=0;" parent="1" source="a47FSEsqnUJS2z_yxP_v-20" target="bcJQ_8z_4AMYAqqbhVP1-2" edge="1">
                    <mxGeometry relative="1" as="geometry"/>
                </mxCell>
                <mxCell id="a47FSEsqnUJS2z_yxP_v-20" value="Tg tạo hóa đơn" style="ellipse;whiteSpace=wrap;html=1;" parent="1" vertex="1">
                    <mxGeometry x="630" y="440" width="120" height="80" as="geometry"/>
                </mxCell>
                <mxCell id="a47FSEsqnUJS2z_yxP_v-23" style="edgeStyle=orthogonalEdgeStyle;rounded=0;orthogonalLoop=1;jettySize=auto;html=1;exitX=0.5;exitY=0;exitDx=0;exitDy=0;entryX=0.5;entryY=1;entryDx=0;entryDy=0;" parent="1" source="a47FSEsqnUJS2z_yxP_v-22" target="bcJQ_8z_4AMYAqqbhVP1-3" edge="1">
                    <mxGeometry relative="1" as="geometry"/>
                </mxCell>
                <mxCell id="a47FSEsqnUJS2z_yxP_v-22" value="Tg tạo hóa đơn" style="ellipse;whiteSpace=wrap;html=1;" parent="1" vertex="1">
                    <mxGeometry x="1730" y="474" width="120" height="80" as="geometry"/>
                </mxCell>
                <mxCell id="a47FSEsqnUJS2z_yxP_v-25" style="edgeStyle=orthogonalEdgeStyle;rounded=0;orthogonalLoop=1;jettySize=auto;html=1;exitX=0.5;exitY=1;exitDx=0;exitDy=0;" parent="1" source="a47FSEsqnUJS2z_yxP_v-24" target="bcJQ_8z_4AMYAqqbhVP1-2" edge="1">
                    <mxGeometry relative="1" as="geometry"/>
                </mxCell>
                <mxCell id="a47FSEsqnUJS2z_yxP_v-24" value="Mã phòng" style="ellipse;whiteSpace=wrap;html=1;" parent="1" vertex="1">
                    <mxGeometry x="630" y="-20" width="120" height="80" as="geometry"/>
                </mxCell>
                <mxCell id="a47FSEsqnUJS2z_yxP_v-27" style="edgeStyle=orthogonalEdgeStyle;rounded=0;orthogonalLoop=1;jettySize=auto;html=1;exitX=0.5;exitY=1;exitDx=0;exitDy=0;" parent="1" source="a47FSEsqnUJS2z_yxP_v-26" target="bcJQ_8z_4AMYAqqbhVP1-3" edge="1">
                    <mxGeometry relative="1" as="geometry"/>
                </mxCell>
                <mxCell id="a47FSEsqnUJS2z_yxP_v-26" value="Mã phòng" style="ellipse;whiteSpace=wrap;html=1;" parent="1" vertex="1">
                    <mxGeometry x="1730" y="-30" width="120" height="80" as="geometry"/>
                </mxCell>
            </root>
        </mxGraphModel>
    </diagram>
    <diagram id="CRn7JG0RmnTXla_IRLO_" name="Sơ đồ trạng thái">
        <mxGraphModel dx="785" dy="521" grid="1" gridSize="10" guides="1" tooltips="1" connect="1" arrows="1" fold="1" page="1" pageScale="1" pageWidth="827" pageHeight="1169" math="0" shadow="0">
            <root>
                <mxCell id="0"/>
                <mxCell id="1" parent="0"/>
            </root>
        </mxGraphModel>
    </diagram>
    <diagram id="LfayS1DCYXn8ijThroWh" name="Sơ đồ class">
        <mxGraphModel dx="1427" dy="947" grid="1" gridSize="10" guides="1" tooltips="1" connect="1" arrows="1" fold="1" page="1" pageScale="1" pageWidth="827" pageHeight="1169" math="0" shadow="0">
            <root>
                <mxCell id="0"/>
                <mxCell id="1" parent="0"/>
            </root>
        </mxGraphModel>
    </diagram>
</mxfile>
=======
<mxfile host="Electron" modified="2023-07-27T13:49:45.668Z" agent="5.0 (Windows NT 10.0; Win64; x64) AppleWebKit/537.36 (KHTML, like Gecko) draw.io/20.3.0 Chrome/104.0.5112.114 Electron/20.1.3 Safari/537.36" etag="qWXTfzlEY9zIe3W9g_-5" version="20.3.0" type="device" pages="2"><diagram id="CvPlZSr4-E2iQnoFlyd8" name="sơ đồ tuần tự">7V1bc+O4lf41qtp9iIq4g49q99wqSWd2p7c2eUqpbY2tHdty1PJMO79+eREo8hxIhCgChEx2qiYmLcIUcO6X78zYzdO3H7bLl4e/bu5WjzOa3H2bsY8zSomWIvu//M5beUfqtLxxv13f7T90uPHL+t+r/c1kf/d1fbf62vjgbrN53K1fmjdvN8/Pq9td495yu9380fzYr5vH5l99Wd6v0I1fbpeP+O7/ru92D+VdTdXh/o+r9f2D+ctE7r/f09J8eP9Nvj4s7zZ/1G6x72bsZrvZ7Mqfnr7drB7zzTP7Uj73/ZHfVi+2XT3vXB74/d///EH+7cNmt35Y7b5L//mF/9dPf9qv8vvy8XX/hT/dz27k7EOS/3dBZjc3M52s8wN8LX9+vt9/nd2b2aPt5vX5bpX/mWTGPvzxsN6tfnlZ3ua//SOjiuzew+7pMbsi2Y/4tc07rLa71bfarf3X+GG1eVrttm/ZR/a//ZOS+z3dExXh++s/DkdEzL4/1I7HPLfcU8V9tfZh47If9nt3xj5StI8/rJebfNvWsxs2WyzyzVuw5+H3juvY9o6hvfuxvmc5xz/kNz7wggJJDBRIk9h2kaNdRLu0er5b5CIxu3rePGc3P9wtvz4U20aaW9Tcz2yftm9/zy/mwlz+Y//J4uLjt/onP77tr45u9NfN6/Z2dUos7Wlit9zer3bt8mt115Di+NxqxyIsp2LubVePy93696bstx3V/i/8vFlnX60mmABZ6AQcd/nN94/VhTVcifPmSjQFK5Vbg1YqaKf64t3JSbwnctJxUQknoi8qAStRuJJnKpHviUpYEheZZDplLmV6+Cd7opqWhUMTkTH13wcVURYXFXFCG6erUjmnoid5wxKCFvNMLZU7dcz622x3D5v7zfPy8S+bzcv+rP9vtdu97b3L5etu06SZ1bf17u+1n/9R+/lAIPnFG6KrOlUl+WZ4VmLtJpErATpT1kV2qW5n7hZ7fbvZZe+5ec4u05NbeI4XxNKKcC203MKbai487RbBDvkpWXj7uPz6dX17SgIe3a1YBBS0manubA3RlpV8KzIcBfhH6cm+Zndvix9pGUXJb8xu+Cwl+X81y33a5Pnh8JEFe5lRuXzKeeH5y9eX6iRrhJAR+6559MvH9X3OJ7fZYa+22Y2cJda3y8fF/hdP67u7/PEP29XX9b+XX4qlcjJ5yTel2CbxYSY+5mtlYvJrKTHzpb/utpvfVjebx832oIR/XT8+glt9cKeEzo/QiC8Js9Ak8+VdEwcxFo2N0p+KuDq3GQmTwLYslWGsk8ogOcM6iSBc42wch7FNCA49xmCcKGiZGD4bzCwx+1LbqLcTmg0psowyDpmE3x425VX6nF091T+6K35dWy59HZHWU03ZxRKs9Sp5FkTr0WsKKvcnfCbPvBu16Bh0X3ct1r9yOh5/a5wVhwzs+6DiVHsWn5wng2s+hfZq0m7dfDpo1FSHVvfqbKfrT7+l6HCr6of8eNbT2TqdLQP1GDa2DXuy7Lw4WuSWy5SZAtZvIEXJRP8WzVEq8G52cMKgfpUk22/mtKeWwxIJXMzp2Hs7HYe84QBmDJHNPRZ66KQCw977KWHokFTIafWX/cMHHvjucPeokEy6CsmIZF/zeGlnYcck5Ech9Vy5eW3ZaS3fah/bGwTHX1zb3/vo68HP7wtbD4RYvkG/LI0DDr/VCih1+pSry+1ydqgJLDInuzWurHy31haUuzy1WFu22kN/1hauA8oPqTix/HbtBJPcTq5dk5zk/vVafXgsh8igGLFoCRI02Mewp3uhlohelsOEseot74RW8m2p4vzkQ0NwPhcic41Kqgvx+aVkP7IZD/9JcPRSWlLMQYUot5izeYVAUSeg6acfst99Kirj9T7m8DM6ruE7MQYvg7/KjhYCUj8RtBNgnyHSjhYuotu7K+xoUSy6Xbym5GMkFg2l6TylPJGcKEIyXdWMn/Ekdy+T6h9tru9q7eR/haYJWmegKJ1JLFwFobRmIXkaFUWJJKOoJhUJybvRTb6WSbkMRSvvqmNF8LhKGpTOiEVJwjgXTGnSOOqU4NiWK+XkCw9NOQ7u8RDRZgEiiOnQ0WYRgsVIncFq/NY7i0nXHN0kt722o+LQ4ABdPwG0+qUGIDDjQ7cNm+8Zl5Tkuikkbf0EgYVk78HWnmu+IxFjiJ45oGd3GYaSbWgt3zIMx2hvHzZVGCW5fajVHpHb7M5zrTmojBgsFk+jbQuqZJk5P1uwkVto0VvI1sQ+6oGe9ew7MvvwIT+28tT2l9kOJI+b4moxW5A8AFnGgFiezTS9YHmEMjuQRfHoKg+33ZsF048zk0pLDr/OaKO48zYeMoAiwSLMq6hUGDJwqKedhDk+uaqvpQdhjtbyjXyBo5M3Fa9/fD7F3TbeTfIXLJi9lqQYD0uDWhNGLck4HZSlHepHh7djmcIaMHC/eoL54PM+zfG37PaPfyutmYXhgjILl3xCuxk85RZb5pIkOI59DanL+KDQSIJDUJEmL0l8cHwkwb5p9OlLEh8kJElwzKq9btZPx1wZID0a12oEX/OLn5e7zJzIVVemiBNdWJowYpvd+X6db8mFtueFRiWhIp0nWhPzv6aKJAkjcy64yIwKkabc1EKfW+1OKCAwmWlVx3RGb/giBJuEg1GUGo6k2pHciApEfIIFIT4BqkXPyKX1R3wkHuJ7x+JMkyAUpUH9o7Z0HninKJcgeDgSO5BVeybIJ4m1w/cQ/s7EW975rRprowSjd2J0KDcL7/ETARFeU1bx6YAodefBYY024omsRqroXDoRto1LcAoLL+cb447gDO8nBIjwVDYU5K5imeHSxBIHHUl0kzCUxBy616D6a5HWU/h3GgFfMurKSFa+bFvLt/KqiLKRiDzR/lO0UN4tnx9yGth3/9zmF7d7dp3BfPRy4uWCcGApSWrJPoaFpnRC6Rqfp9aOWmhMvnaDOxQ01FDxBEYBCIR3gRUlBBWytnkmygc3tul5/Q1jNrbJXOvmASZszmitVaVjAXrGmHpu4EId1/aONo2zXO4lCA3MzvzGt4NuH4suZxAzUQ0PSUaYA7eHl4w0AVtF0gjA8p06vybLB2+cooHsGZQ1cyzTsqf5ho4RSjrRW7d8XCj7GaU1VFd6gyuJBAky3+SmXOpKp/xIROKNS9KR3GIQb8pBvA3glFEGbA8ZgVOmcNDl77Vax4jrHmG9npFzwxVKKZwHvoLCRwohvKqJNAPuJM7LRVr4SCEAUwy7h1Nb0Rc+5jgcse1jOgWsZk79MByKYtPKdDYii1QE5YaFCp0bTnFEasoNn2ZfrsCpMWmLQYXNDqeqRa697+ww4stqEs+5Zn3Ol2AlxJS+rfoU2wRTbtgPL6P5kwxxctjcME0c+tgmVWxj+TwXUMvtJB2rtjIJgHtVW9b2PkEZ+/kXJI6+1iemjCd7RLkAZT/COj848EQbS/OWP11+TkSwLdx3ImKYz0lLsv9clvLYb0z7mDjDjsHNDJI4IpI4LAVxfzxbGdTSconoboC0JQPmdQSjNBOH2ukxcig1/ZIOHJoE4lCp0rl5rcuZ1LZacD7FkDUx8KkEMIYRDP6zTHMfA586cF8oLDsJYUFMgPY6OS9KaDzEeTanNTTnjVNDeuenVKTzlEuuEqE1ZbyZbhYphUfqzF/5yoi/0HK+OcyQiV+6uW4ayGTqHMydriCDzxerQECjQcbeT9zB6xik3GpwW3ooH1Ylel4PbdGOpIXjcWlY0jpzqsBoI6cMzl+hqkkBXSOnTFFLv+vptX1HTs34gJEmxpgyHUdG4GsyNygO57J4xuG6dTHvXI7Dpb8Use7vy3h2Xr/1uSgCSXkxgevzT8OXcFEGKuIGx66jAoPDXJuFbupSL9C6KlBcCslcQgLDn1Yt7NdVs8cYwJAevlqKWiDzI63ZYxKOqRt+9wSOZ0Zfs8dSyL4R7OP1O049CHAZSIDnts8cpKYIgad7jiUFVwvdPEAFmwgoswACNTplzpGFgLo211lXCx0fF1ECcDE0bX34zJTLhK13Z32356VMImPivfMpKsqmc6Zg13mSDN75RS2jm3CRe2O8+m5tLZzbrcufn7Kff6tX5JIntPnvtYqOCdgCYcNGU5YT9ldCZ5nThM5jivwW0UCEt8JoP8HfwqQFeCtta/sOeQiLo16vfc1jHbvajSTn63pZ/MTw2SFqyPAWALWwU7yoE6zDeQzf2pVfGxacKFoXC/kN2SIaiqufV9t1tgM5LVyFvOAJaR490x3b3bKVABQTJI4jsiA7wuVb7WN7zjjxyrAEaf/Kx98MpsRp2wP00gf23/3AAuW37Ff4WWacfT4lzmwW0N1BOC6K3oLdtnzquUVyjkQ2YgYRNkCqKt0TSDo6+OUj9DanUGF3ioqyBpmlANqVi+FxRqjEnvnnbdmUmc7MPNDFQWrWxXB+7v96PXy4bn/uai6rJm+jkbFMgQyg/ZQDd23JkF1b1xNNN2EpB2kcqN6t79gfnIhKA1e5ySjbtlDgT9S01oCyWIdhylirv2DViejaCZWX9p1eyTvd41jOKbVqQ0OYVG0bF3OgaoWlTq0yPsMoWgPHMSpnpl3RmqB7u6KNv8TNYanQ6TUVp8PDQXW1MFJxOBXrAkE55V7ys+NyrmEDV0dw+0wds65NQf3xSMgw0/W4QMZAd5DMV1p6BFwgwdySAv0RXpSjSJALJMng/o/CsaibMkpfVCefggA7hPeLG/fFJw4AYpai3HdrFQuDyVVpXUsCVIa0ipkLeMukdSmem8SFmDNeK0lwG6Nkm/qLet3a1vaskJkFSQqXO+Ak3ykhcKoEaiTsTwTMMthq/3VY9ndAphjhnIHgwyoETMS5D6sgg08PYMQhtDJV0Xigmlx1uKUNbIs1C2mE0GixnmppiEbhwOrFj78ffEY4PAM9ik7PaPCMn7oaZkGZOreuZiyaE9EC5RWtDoaVzVzmxo9wJlRrvGKaCdWN3KKMVhCVglCyToafD1jNdxxpwpYI1rQJJeluYLLTK3mnexyiOJWwnUJRLlwrwQBUoYZuvmEu2H+DqVMV8YzFaqS2g+ZVweRPmGnmDAAJCfCq3oWTQ/leBNPMJZMxKOV03EoZjcSVtEqndSB92bqYb+o3RnFzwMx+nAQrp8uYyw9WD/bEvImxqGIGXAvJuHWaRNjEEHWI6UUg2JQgw5eHMrM3UxatVQKivuG8ldhRbln1P+wVtq3nO2FGAyHgxKvYaPMMdHKJYtOti3lXbDi0B+YkfTvorUmFwXm4KrFK5cDxWYqLVg7WicoP8dfN9smc5YLcZj8+l6e8mC3AKY/mKKmTgg3bJcVc0L4jmE8uU6vpFtoaidMnhZulSRKD6TZBvrjqeGS6aU4y6+tQpuQWe3Gy4lqW9m7Q4boYm/636Qy5fMqZ6fnL15fqWEehOECrhSZ2NzYohAFjOEIRgyyEbqyWMbixrP86nvcpC2ExqE67ij5L9SdazLewM9H3U+Web2WW7XUGSjnzG99qGbdpFjSRAObqCG8Hjucxh+qBqUav/5KTlF4Q3oI1eqlkrnGVi2v0ai/uXKOXSodnWB/PMPCMpxo9huNAf67X5aVFXd62QLSaqvMqykkjiP4wHP1BRxJBuRRJoshgsP77gCb14KIedNqfeijKKoLph8ObO+sHklCHh1gvDzGoVnypCBxt+1zCfixK5YBH4xQq4tvoQA6J1piEbCGCwIpi3Ng+mTNLAetoZylic2h1+2q+03fMAa/5NIjPtsavlirTsXCsRGL1SDooLMua8Etkth2M6hFiz4MGtu04QZszKgEHqxMIodjo6lyeYF3Nt4AzItu5Q/vLHr9sU/xiubdDcjCz28OnxiLVGABbPsanYUN0PJlSkU4MbRk+TueprOElcCdutA2zx1gMLWt7Ds5zpw79yTG/mKZSUJvNUzZPk/Twz208sW1h0GfNxNwxw3Ouj84S5vQljiIywecFY+Zdj38/1cczAjzjx1nnBBuOU8+1HawI0UKmI20MMZgXwJ1gJ6b+a8vGUUfZ27dQ1VzNjTF+ruGNJbQWFXRhILubWzAbEMmFdzxpCkrrhFAVRORgficn466KR2aqgOCz7qQvgA2hMR95J32cCp3asC9lXCUg44rqYAfrxOaWjvsYpJwEmyUJi0HKOThol4u97ki0ucpKCB1WEqp0LprtqhoDqDiLw3w5zpu0wGlgPBZuaX6dDr7FZiMspfkkT0JpohJGaFcSSAUigVwpBo7D8gqj4XqRqmMgEw5KJgnvioeIlpKBEf+5kQLvCc08BhrJhH5fNJLrDwb6TYLjeXGKK3In8IRzbUIOIokyGRpSm5ve4bG6vUgCczdUURufAogTHnZAALd0EKOznTJyllCHItJRnDol4SzL+c67WTqOz2qK+e1EmfihEjBfpczGl3MUjBQ/JCEqMV/eWLCaJhhfvATSmdTSNiY5sMB36LeeUrT9O5PKjIy6OCerTXDTd0LWvLJzBlaT0w+gVGqHBzhgAR+JV0ub/alGmqMScqTd1ZiQjCAcLv1q6ZFH5xFBLkwzOnwNZjXqY6xOAVTcWrpJXKt5eHol306BpUu+ngg7VVc+Eml1kE6neTDorBtuaXOPQV5JiJsxfEqLjTxxz9ImeHpKQPHfGREMdnol78LKBmSXF4G/PKxKEfWSe68PZRFcWs66rvu542lPo1wCy8HCiYSFlVlRNjFTBoaAplwPj3vGPfQwv89oHUslhPJKNZnzriXOmZSD+F229XyH7CyduJ8O0FwvM2sK5bbKsRjhV14uPi6LpaqCpm/7Dpo94lcV7ivc0tGISNDhlgphM+xoYCnp0DgTgWVnK5kOLSL77yZ5nyJSZvILDFknCb0kqaHhnHXber5FpKVx1mWy65SWOM3pCqJ62JojwtZwchyluJTTp6SES4VbYupULs5KEALfx1daonpp57wEIeT0EyjP0OUJGqInzNJLPWF8teUfSGJzjsMmIPgEaTiMiCOiNxFHHZGdLxdx5qXPEHHp2QLr7CfM9/cs4nAU8C+l2fc6bqnGIWCLxFItDSvU4oz4waxqpppjCPlxiTZnVJkKmFYllLv6lO2ZVdtivvMVPMrZFSiUQ6hMB6d9HPU61ZA55aWz04CWDCW2+kGShBX5+ARGJcRQ9w9NO1eMS92ylG8BJnCE7fMxIK6JJXEDh1WyBnYshUPsbOSdnUyxBAa0L2jpzZdrrDVAP6/AcSB06lNuxHpWYm4M8XMjApnsR90etvV8J0bEFEsKQTs8AdCLKjt+TrrSDhz9yjVarKd4Ek9gh9PhxY+/H3yGOzxD+3hGg2c8xZWEBRNmglOz2TmYFgivaHVAS8elwXGCULNsnAxjZyGBSRKZINgzVzMLrSbT8EBSIkp0IZZq0HOqkjkbvGBHKLQ3Y4oNIFtTJ8gvcCf+BGI+YE7yTvznBe0mFDUX1lWYdbFiDVt+Ix38iQGEnEpAiXsmuyiOtwQWchKbkRMSyrlHK4AToCmZm9KW4cBQTEvFWPUXh91dklancn6QjMLWR4IW863AJLbePv9U6qu/Zrf//FPOiHpR3Tl5+C0SsA+2YMDvohbVYPO5pD+W8GDSDUbgFNhnnUG5BGlZyDthY8vspBJ63JjWEpJXTb+UGohmOoktmtfYdCvNvOTYx3Ldth4t1gEFw7WZxZoLjPBi3iAua44Ds5eneKMCW3Kq/6rzd5lDQWJTuUk7LDZx+gSt5Tt3YmB4HA99Lyka8bv24yezRn5EdCWAcmNdmD0SUkGK0eTHzyYVsBBzrLLoj06wT3xTqdSPz21KM38hpCPHohPBIN2q+KtuxvKgOjE9r9t6WK6PlJdJ5XpcyswkIfry0c99s7xIzkurdyOSGl1cZBu0Zn2EGf4WCTllYmEuKdOKSMI1r5IFJrkj3OBSretmEufwjzbWpY4+Xn9UhOODiIoGKAoGsdQK42sw8zszBq+I3eJhop5kcsZxqJRJs7CsMjX4u506EQKa1WLOeE3msW5EQDSmgra1fROFh17wd0kU0KgSXSWB0ogG0FreDx175ffnAFg/1m6Q/AzuliVAjsHBeSgcts1+lHSRituOFABCgJClLRIXFhNHWFo++zcF+nLP2i1v0+sdiaRQKXS/uouKdA4skOD2tUsjfXj7WgE4PsHl3GBrDGdi83EntJGKVG6F+jYVCRcK3PAhOPaWdidqsSb9d1z/AWM6u7Y1h5OggL8izl5imLUT6dBd9MLSSRyvrdCawBGmkSsSWwGKzLwESAklGGFSM+VYgdq6rDRzp+KJ/vpobB5M88GUrew6uxIfXGC9Z2lRPlnpYhRfoQ+N3qsl6jK1V346HZPOo2jyHLVBCQRFjxEuncvRSPJ2ry92Se44bvYaZbdLN/TwxlMFvDmc8eShc/hdBleR/kzTOdPp4V9HVrL0j59e2Xc0xdIUe6LMZSTakoHuBKk4YtzAqjLuQE6Pbk7PjKu6znOFWk+J0IYvDvgcDF+Vc+avm23epv7cOjbg2eRS9pbvxzydcld8LB0RW1PRro+rlotAfH3eNM7YgxkyrsQH5OGU92QCa8UirF+ztOueIqbJuKuaD7uSBTbn0FreDThcQ9M+R2ZSCCUhQAfNEt0O24otJA53TTxs5WECp0Jp3ZmNNZwIhdbyzcYSx8KAH/bttV7jkr/+1EYOAQJMeGOwGXjC4NO8E4POdEu1Rz8jN/0Ied+2X5wQHjACmiaDp48t8B2TgnXxnVhH/rGUl6K1vGtXjBznPklsXdOvhzk7M4AYeBi8MxLlKwA8uY23QxvP19Tl56BSVVQSAZWRUtJZJKAy0sqUCyYSoqy3gmWkpBr6MqDG7D+sFBXa8NUzYtrV8dVwlkECjeSeAIk11BX7Nz76YmhOIW15AH2T8x9QgFU8YBALiaN147YiEGWk2IUPa0S4wOecJ+6OblOk8oQkfZUK4ZV8q3WD6XO1iXITcQmdKCfEsayrv6Oi7Yw2fMiCJMOXvFuwaKbhWSdPUSCRZrGjw07OEgpHniwx/eMYyiM5OkYRA2KTIGz1lcLhowtNgrg8oFjtENI55pjC4eRKOSm3Sx2b6pWdPRuiznRUOjwQwrNROPZWm9p7Chr+91I5JfmQuYeD6lqw2SEoO7omRQVnpRJ7x0Zg3yjKoBnENpJCDj/tVyiHsNnwe6U0j2GvzgMCmuD5Zrbm9o6gDiJJq7E6Zi1y4KBoctzSRhRxjnu6YFymGQd1lPxaQwiSuQL/XTruSZB0zmr/gMaCqPSeAwqSWEoh7+tzZ0o7o6h1fD0gIZwMF/kH/eccmoQWaL6wqP/S/LV6vny9zA20u3XdQsNeafDdUzy+3cO1fD+ea9eG3kcBxzLGsI9skvcu8p6HGu+nUj3X6aXy3rZuOhdNhJ2qFT1Qu1XV1DwMsR0IrD254JPYvCMyJcoLCWXrRkBCU/+NmxyB07+yheda1SBHu87nVimqNWxb27dRyrApNQkah6IbaQrEJq12iUhyCKwMkGNVCjCpEpbgZtgglGQeSgcGU7RIxrJEzo2D3IGU0WJh6Zi5ZODGJ0XbfQNz5O3y9sqiRu0UH1zYmh2MTNjytClsGUsiELYuwAeTs39cozsw9LWHBWAmm5nRKsEY2qGfJALriWkyfA5Pssn7ddR/0DKTZM7qA4zcqNzJ+21b27v3e15i1xtRWOX8SSl/gYh2FryBCE7DoYzEzTCyRdnwuJgkkynJcPEV7hJfmWrzLg/cgoIkntKuRARwOwRjc0eUtnPL8wQBkF88JXNeR1s8XUuHnheMmHc9UU7RxzMMPOOnbE9api19Xpe58bwVqdGcRIrmJNwmbQr4ihv7jGaOu7zb7KcPjKd4OZOQgE1EOk/r/zCSZFjUZRnn/BSRQE4ToqpKGs6oNYOJIm0n8u7aaTBNU2g5F242pDX317qYb5eO40Di1EpzkjMzlQkKDYWaa4XFWNBuGuk0BmQKIB33TtoDSFdfVwIDSK6OT3/S5joCSDJRw0eEfcxfuSZVC8NCVUCtQ7ZOnl7JN9lbBnv82EA5KMe2rKtySNu0srpXUSuWLPBJy/Eupnxy73ccFPd4/A1ejS06yco0rG62juOQj/kJ/LopSPVwNPJfrxvziz+Vm7jIPkDIy7dii8zvs5/u8/8HqJi35nKR3maXz3lzmWalc1qQxMfSFd2+Fve+FPduyntls1lSXlTQ6kVPWnaC+efLd/6yzfdj//f3TxU1u3L5lEvr5y9fX8o3fCzf9PvyW5YPjIgWAaQAJbhxtyoXrlMi90eJ2Nk9OT1qL1ZqdFWSWf3UDZHl0ZBbg7RcAPJXFDcf0aELWMqj8aGTsOIH5+GB1Kid4ENzpsLOHGgO+zeWM5Qw0cqsvaZBRyNIgT11hNl4YiS4XTbnonxsYlnDdLGFQ8OGIAU29SdXHe+TMsE371X5PImqkc8Cgn8FjXyCgcHCEbRQWWDlI23kExICUkWwe9iPib+RD4ZrY9hH3MjnSZrTqMV5oHiqkNpPk5VMYYgKwwT4ji1JnJEbYeG3dxJKpR8SSuXwTTEWNHhMU1OlYmYWAlXSV59eJqCi69Nzwo4fn6BpzxI6g2NHq9V0BCIpSmAtISUM7kXQp2fw6N9Fnx6SsZf06WWkPHCfngXffJKiLlUZRnq1y1tTYHglQaF2ig8ubF0Q3gcQtkxH2KencABpSIa+mthtpdEdGJpeuwGFusMDF3XGiSSPrKc4+vQsYPKYoyfv12KZ9dSnZ/N+h+7T060pc9dCGzNSWuzrtPaXeZHWY2Po9KJ8+PgQW5jBBTT6XvO1gkN0JGKpqLCV0fhL2GocMTtZRvO4qZdRnDjj7LlVno3KB5LntVj5PpQ1+Mnhl/frak75mKjAoa7GJv48UgEOkd2UwO5FAjE79WV5UZz5CcT3XT2XW0iBWmHHmFDeBcR+PVJ5o8OeM26t+Pzf//Pph+zWh5/KdPunH9EZhcfNBel2IzaHy3NqS/QjJ/0ENFEOvHOCQczcoXdOmQK09xLT44395Ym+JKaHFmuu5Nm7UgkOATTEfl4C0SzKMXOTb5pzDZ9eG7USNcXQbDH+j0zh11bMP5fXX2dGwr4l4K283j2Y/uL7/xyRyoBuid2rDDs1USUuXuUUJzoejGyNE11bNaCDQy2ATPQuyeKME8HAL2fDt+OpBEcEMENPYSKLspdqntQRccDkMfcwUZogsJ2WtT2HiVSC4wCdTIHR6GrE2diJJ0GbY1TiUGkwwuLMKofgoIevv4yTNqkycFt8tYOR6WGYr+Ep9otDa2FLKGaCZ7qgOB7AMwlTsDIYHpNK+odI7A/sMBYjS6ZNI0sQPTeJzLMNK0QEjrGZ3uSfkbcTZqFfqoEHLZPkEqppoldJTueZrKj+uaF1nItgKKvB5bXvgP/ssbfGj/NzHhep7vlx2555RThUxKGCaQBjI4UHI/mc8RpQ4NCmBwnkF0SKx4OsZJmKOXXzt63tNK2L+ba6CQ7RTtB3p5kUAohJKeciPcWkYVHwFHGI0kXgSal8njAGgwkt0cS4JRqMvysukTl0RlpSti7mXaLhOIJnnLGXfVlLUvrXZX1So+7FgjRShECX+zoXUwlThzJYsNtitdf9u49GviKKTNK5QaRuy2V6A41SBIdIJ+SZLserYEBNZzKC1tSnREfdU+wlu9xucty4g7zJFN/DXzd3q/wT/w8=</diagram><diagram id="XWoZbcYgm9JVKRNmNZrq" name="Sơ đồ đối tượng">7V1vc+K8Ef80nmk7A+P/4JeGJHdzzz13N5d02udVR2ABemJbri2S0E9fSZaNJRswHBjTkswEW5ZWK2l3f7srmWjWNPr4lIJk9TsOYKiZevChWQ+aaZqeN6YfrGSTl4xdIy9YpijIiyoFz+g/UBTqonSNAphJFQnGIUGJXDjHcQznRCoDaYrf5WoLHMq9JmAJawXPcxDWS/+BArISo3D0bflniJaromdDF08iUFQWBdkKBPi9UmQ9atY0xZjkV9HHFIZs8op5yds97XhaMpbCmLRp4LiffujfP2UoenLtf5FwM/3620BQeQPhWgxYM92Q0pskjGWyEfPg/nvN+JxEIF2iWLN8PfkobwcEJ7TI5kUEfpABCNGS1ZpT3mBKS7cU6NVSfPJ+ZkXBZwwecPwJ4eIJHcpMrU3LErVslTJWC8kp+jF2d3nM0EK4IOXYmkhOGDHM2LZ8Ntt0MXrLq5jxdP+smlKX5htMCaIK4edr+sAXeyJW+CHvc4JprUXIxXuBqNhZkwWOiVBnwxT3TyBCITMEn2H4BhlVNiUkClmlsm/WIfzYKeVGqTvU6EAcQZJuaBXRYGDYhcJtCkviioL3rQIbRdmqqrwjUQiE0ViW5Ld6RS+Eah2hZmbf1OzbEmxuUc8433dF64WiUX3pnaJZ/VE0+gkitoJh/Q7MMpIC6q5QxyUEWVY+lVvKd/EsS2RZaqW2V7Iwt2ddIiA4V+3LIT2+ED8xtXVVjgJAqCpH8MpsERj/tgLz1WcQL3PGqCwjen1dtiLwY4ULjg6Aw9k7D5jjCq7Td4gBqoqJvBr9VDUQBBOKXn/5a87yG6ZGvcs5WydMma7KAg2U4ZVZWKD4ustAMAHhI7UlL5sEFlwEeD0LYad8zPE6JlRp2GRkB7T4xp02q0isCKdt5LT02Uz7Uj6b3eCzKbMM48BnyRx6Nwvx/FWemJQuXwBZF7qYyikOccqbWjr/oeWUxhOffF4LfiDyT3Y9dMTdH5UnDx/Vm01xE9PhVhqx2z8ED/xm24zfFe3y4cCglmlSlo0FOOt0Dg/nawgVbkgO+cF1MagsstOwxkVZCkNA0JvMbtO6ix5+YK4uWynTHUXKPEV48oGKdtWkVZ2UrpBS5TCfixopLorl0E+XTucuna2l07wN6bRqGSLLOVU8TYWW17F4ujsD3iwBcSNQMhEc5O6fb9hDPeHomeHBDAVoID01xNOqb/9UYGGIYjgoFsg39JFmOgX5hcAyv4xeRecvNICh4a7+Db7Tvz9xxJiUq2jmNIMpWgiuFlQQQUYGNbp1jqYUd2cpUhqSFYwgb07bRSjG6YAJUFwddUMdVr5r6KwdiDNECcXLNd9C8B+/Df7+rHS94zHvsvLM/zl49uvOyctKm1qar8erRiYI0h4NbTLRxgZbaL7GeibKPKoX+rKo4bFHZLXm9Jh78zfWYGqzalNX8zkBWps9NoZseXhDX5s8rVnLlNWa6CU1Fl/oK3HrW8n+jtV8hm7ajCgq++Dk3vLBVusL90u39Hr9pgnJ52vKPDpt6mi+xwnPC0bHHiPD6zywOc35qPB69pGH9TEt94xJr4zglV9ObF4e8Gtvx7hDLKj4BuLcscoWaFhiKua4NuTSy80txg5HN1uBhF3GmNCPyfsKEficAI4H7ylIZNCbgfnrkiPf9zVhhkKUByB9/U5bIcLhZ6gXFqMJE8/i8DqqsTebPF6vAW8ul6UcHZmllFJxf64zghabopjGcHwufMsZ2k5CqmZEJBerpH7P8DecRiDcb270w8aFCiOvvvkl07KTpKwwI1k5loXe+FbE9Fhn0LO7W24EmODHpebm+lbpUE1ezbkWmTHX4lK9quqyOyi8VV0pJb5HujK+jYz+hK0fYOPdm8nvd+beT5JjebxmLnHA7RRhpJjheb6BxGeAsiQEm8MZtxtPM+m2bEmcUYMhaUozqYmCs9kR76g4PkAgwnHwsuJhwjY4z4Pp4pwS9R/3hPqVgNw8KiIvon9Dq8T+gsbO8P+MYbzVMowfHwzjyyX+1Zh95BlD1/J08WvIMOXqitS0jt9HY4qrujkqfi2ZsN1xNF8kZ/uOdlNqR1Ic3jTY5XtmYiThjeHeziMBvWJUbPbNCcLxD4pNNPCAwf869o1tZlK2P7KtGpstgdBQbdrZkNBoOvTZGRSOToLCYxLhZ0TCwh73CQoNw/SGXuXHUQTMHJ6azfbsfZRdNca7NBiaR8kpTuA+AeU2YLeAFnImuVz7Pa5SqI2qRFd2XzrYDmwrn4d3XM4mn54p2z9TEqKRe/JWiz6SpXMsy73hdCud9aOGg4i9/vATRizto0oq81NkCSwQrHRaVKCLUBCw5pMUUgAHM06KSVDCBsWH6Uw054HRWhMsQJ6RzqhP8wqLPFGMWU5pwnBRKToH3hm6kmGlPnUN4ppyRubFAK7pREEPvWjEyCxYWvCW/eg/wRsYgncyhG+01dDn3t5XlBEYw/TG3Op7OqmXLrWj5KXHVoMTPe7WiT7tXEgAshV3OgzJVdFPcVUoGLqyu+KM9zss9IaGYYjOAFPuqzkjuX3uxhtx7H3eCMWuU90RW/E/PKdj73j3yY+rQMDHMHun9nJ4rMUP0FsjuxIztEYLfnaeeNnusA3muQOUH/FEBIGw3RC/PKUgggcGJ2+gl8V8iH2DjgWC7FVYNhHs9G2/cY4qywqXmaPd/N42zI0sGeactu9TXWzTxDj2pEJHRubLC6XyxCX4hhzMu+L1VPG2by4KzSsPu19P85rOPVw4SduYay02IQ8eOpb3OLdpr8snwUYt/c4Ok7SOK+dOPTV32trPdJUXNozaixiXdjTrO+ePHzS4D7I2AU8lqnFrIc9BUZR3wDvbAB+3DWTc7iTKclkgYxu2a/E/yk61rqY/WwuYZerDkeWMHcvlf+SXuj01gr6wtBVJwd55HF/BDN7ULvHd2+irt2Ep6Szbu7a3UYyib1pH2KbH8AEuwDokL+xGfMPUbjVs9/r59WX9rpi9U8yxGgU0nH42u9VL84pRgHlSGDC6VhhQfj1cj8IAGli6sql3zaFtVfLR7olem+fJsuqMO/bTevRNO23Tz7MzJYe/TNaE3OI33Nwxp3eYsw3ne5N6Mo/7QoZzgo4x1PnsV2L+sd0WeXTHlKCHhsuHjmI17YjyGhfcJjV7eLy+9oUNtqtI1+nApJza8rqFqaZt+v8XmOIB0x2l7ih1hpSFglLW1bcmzabzDx2hlNY+K73FJxmbzA5PCRdGsFeIYxjjoS4fobEsc+i4ZwiODF3ZSXfVYz6Xhp2mffPbEc4uZbOXb1go1s4++ZRYXRL12usZl5bFHr1B37kL9APE912buwt0FhdorGhy0yHkbl2gK7zTfkaUGXUJM2239DuFGSXodk7/Gjr1+xZK4fxlkKG32/9Rklff/qcX6/G/</diagram></mxfile>
>>>>>>> feature-ecb-hung
